solid vcg
  facet normal  0.000000e+00  1.000000e+00  0.000000e+00
    outer loop
      vertex   0.000000e+00  1.000000e+00  0.000000e+00
      vertex   9.951847e-01  1.000000e+00  9.801714e-02
      vertex   1.000000e+00  1.000000e+00  0.000000e+00
    endloop
  endfacet
  facet normal  0.000000e+00  1.000000e+00  0.000000e+00
    outer loop
      vertex   0.000000e+00  1.000000e+00  0.000000e+00
      vertex   9.807853e-01  1.000000e+00  1.950903e-01
      vertex   9.951847e-01  1.000000e+00  9.801714e-02
    endloop
  endfacet
  facet normal  0.000000e+00  1.000000e+00  0.000000e+00
    outer loop
      vertex   0.000000e+00  1.000000e+00  0.000000e+00
      vertex   9.569404e-01  1.000000e+00  2.902847e-01
      vertex   9.807853e-01  1.000000e+00  1.950903e-01
    endloop
  endfacet
  facet normal  0.000000e+00  1.000000e+00  0.000000e+00
    outer loop
      vertex   0.000000e+00  1.000000e+00  0.000000e+00
      vertex   9.238795e-01  1.000000e+00  3.826834e-01
      vertex   9.569404e-01  1.000000e+00  2.902847e-01
    endloop
  endfacet
  facet normal  0.000000e+00  1.000000e+00  0.000000e+00
    outer loop
      vertex   0.000000e+00  1.000000e+00  0.000000e+00
      vertex   8.819213e-01  1.000000e+00  4.713967e-01
      vertex   9.238795e-01  1.000000e+00  3.826834e-01
    endloop
  endfacet
  facet normal  0.000000e+00  1.000000e+00  0.000000e+00
    outer loop
      vertex   0.000000e+00  1.000000e+00  0.000000e+00
      vertex   8.314696e-01  1.000000e+00  5.555702e-01
      vertex   8.819213e-01  1.000000e+00  4.713967e-01
    endloop
  endfacet
  facet normal  0.000000e+00  1.000000e+00  0.000000e+00
    outer loop
      vertex   0.000000e+00  1.000000e+00  0.000000e+00
      vertex   7.730104e-01  1.000000e+00  6.343933e-01
      vertex   8.314696e-01  1.000000e+00  5.555702e-01
    endloop
  endfacet
  facet normal  0.000000e+00  1.000000e+00  0.000000e+00
    outer loop
      vertex   0.000000e+00  1.000000e+00  0.000000e+00
      vertex   7.071068e-01  1.000000e+00  7.071068e-01
      vertex   7.730104e-01  1.000000e+00  6.343933e-01
    endloop
  endfacet
  facet normal  0.000000e+00  1.000000e+00  0.000000e+00
    outer loop
      vertex   0.000000e+00  1.000000e+00  0.000000e+00
      vertex   6.343933e-01  1.000000e+00  7.730104e-01
      vertex   7.071068e-01  1.000000e+00  7.071068e-01
    endloop
  endfacet
  facet normal  0.000000e+00  1.000000e+00  0.000000e+00
    outer loop
      vertex   0.000000e+00  1.000000e+00  0.000000e+00
      vertex   5.555702e-01  1.000000e+00  8.314696e-01
      vertex   6.343933e-01  1.000000e+00  7.730104e-01
    endloop
  endfacet
  facet normal  0.000000e+00  1.000000e+00  0.000000e+00
    outer loop
      vertex   0.000000e+00  1.000000e+00  0.000000e+00
      vertex   4.713967e-01  1.000000e+00  8.819213e-01
      vertex   5.555702e-01  1.000000e+00  8.314696e-01
    endloop
  endfacet
  facet normal  0.000000e+00  1.000000e+00  0.000000e+00
    outer loop
      vertex   0.000000e+00  1.000000e+00  0.000000e+00
      vertex   3.826834e-01  1.000000e+00  9.238795e-01
      vertex   4.713967e-01  1.000000e+00  8.819213e-01
    endloop
  endfacet
  facet normal  0.000000e+00  1.000000e+00  0.000000e+00
    outer loop
      vertex   0.000000e+00  1.000000e+00  0.000000e+00
      vertex   2.902847e-01  1.000000e+00  9.569404e-01
      vertex   3.826834e-01  1.000000e+00  9.238795e-01
    endloop
  endfacet
  facet normal  0.000000e+00  1.000000e+00  0.000000e+00
    outer loop
      vertex   0.000000e+00  1.000000e+00  0.000000e+00
      vertex   1.950903e-01  1.000000e+00  9.807853e-01
      vertex   2.902847e-01  1.000000e+00  9.569404e-01
    endloop
  endfacet
  facet normal  0.000000e+00  1.000000e+00  0.000000e+00
    outer loop
      vertex   0.000000e+00  1.000000e+00  0.000000e+00
      vertex   9.801714e-02  1.000000e+00  9.951847e-01
      vertex   1.950903e-01  1.000000e+00  9.807853e-01
    endloop
  endfacet
  facet normal  0.000000e+00  1.000000e+00  0.000000e+00
    outer loop
      vertex   0.000000e+00  1.000000e+00  0.000000e+00
      vertex   6.123032e-17  1.000000e+00  1.000000e+00
      vertex   9.801714e-02  1.000000e+00  9.951847e-01
    endloop
  endfacet
  facet normal  0.000000e+00  1.000000e+00 -0.000000e+00
    outer loop
      vertex   0.000000e+00  1.000000e+00  0.000000e+00
      vertex  -9.801714e-02  1.000000e+00  9.951847e-01
      vertex   6.123032e-17  1.000000e+00  1.000000e+00
    endloop
  endfacet
  facet normal  0.000000e+00  1.000000e+00  0.000000e+00
    outer loop
      vertex   0.000000e+00  1.000000e+00  0.000000e+00
      vertex  -1.950903e-01  1.000000e+00  9.807853e-01
      vertex  -9.801714e-02  1.000000e+00  9.951847e-01
    endloop
  endfacet
  facet normal  0.000000e+00  1.000000e+00  0.000000e+00
    outer loop
      vertex   0.000000e+00  1.000000e+00  0.000000e+00
      vertex  -2.902847e-01  1.000000e+00  9.569404e-01
      vertex  -1.950903e-01  1.000000e+00  9.807853e-01
    endloop
  endfacet
  facet normal  0.000000e+00  1.000000e+00  0.000000e+00
    outer loop
      vertex   0.000000e+00  1.000000e+00  0.000000e+00
      vertex  -3.826834e-01  1.000000e+00  9.238795e-01
      vertex  -2.902847e-01  1.000000e+00  9.569404e-01
    endloop
  endfacet
  facet normal  0.000000e+00  1.000000e+00  0.000000e+00
    outer loop
      vertex   0.000000e+00  1.000000e+00  0.000000e+00
      vertex  -4.713967e-01  1.000000e+00  8.819213e-01
      vertex  -3.826834e-01  1.000000e+00  9.238795e-01
    endloop
  endfacet
  facet normal  0.000000e+00  1.000000e+00  0.000000e+00
    outer loop
      vertex   0.000000e+00  1.000000e+00  0.000000e+00
      vertex  -5.555702e-01  1.000000e+00  8.314696e-01
      vertex  -4.713967e-01  1.000000e+00  8.819213e-01
    endloop
  endfacet
  facet normal  0.000000e+00  1.000000e+00  0.000000e+00
    outer loop
      vertex   0.000000e+00  1.000000e+00  0.000000e+00
      vertex  -6.343933e-01  1.000000e+00  7.730104e-01
      vertex  -5.555702e-01  1.000000e+00  8.314696e-01
    endloop
  endfacet
  facet normal  0.000000e+00  1.000000e+00  0.000000e+00
    outer loop
      vertex   0.000000e+00  1.000000e+00  0.000000e+00
      vertex  -7.071068e-01  1.000000e+00  7.071068e-01
      vertex  -6.343933e-01  1.000000e+00  7.730104e-01
    endloop
  endfacet
  facet normal  0.000000e+00  1.000000e+00  0.000000e+00
    outer loop
      vertex   0.000000e+00  1.000000e+00  0.000000e+00
      vertex  -7.730104e-01  1.000000e+00  6.343933e-01
      vertex  -7.071068e-01  1.000000e+00  7.071068e-01
    endloop
  endfacet
  facet normal  0.000000e+00  1.000000e+00  0.000000e+00
    outer loop
      vertex   0.000000e+00  1.000000e+00  0.000000e+00
      vertex  -8.314696e-01  1.000000e+00  5.555702e-01
      vertex  -7.730104e-01  1.000000e+00  6.343933e-01
    endloop
  endfacet
  facet normal  0.000000e+00  1.000000e+00  0.000000e+00
    outer loop
      vertex   0.000000e+00  1.000000e+00  0.000000e+00
      vertex  -8.819213e-01  1.000000e+00  4.713967e-01
      vertex  -8.314696e-01  1.000000e+00  5.555702e-01
    endloop
  endfacet
  facet normal  0.000000e+00  1.000000e+00  0.000000e+00
    outer loop
      vertex   0.000000e+00  1.000000e+00  0.000000e+00
      vertex  -9.238795e-01  1.000000e+00  3.826834e-01
      vertex  -8.819213e-01  1.000000e+00  4.713967e-01
    endloop
  endfacet
  facet normal  0.000000e+00  1.000000e+00  0.000000e+00
    outer loop
      vertex   0.000000e+00  1.000000e+00  0.000000e+00
      vertex  -9.569404e-01  1.000000e+00  2.902847e-01
      vertex  -9.238795e-01  1.000000e+00  3.826834e-01
    endloop
  endfacet
  facet normal  0.000000e+00  1.000000e+00  0.000000e+00
    outer loop
      vertex   0.000000e+00  1.000000e+00  0.000000e+00
      vertex  -9.807853e-01  1.000000e+00  1.950903e-01
      vertex  -9.569404e-01  1.000000e+00  2.902847e-01
    endloop
  endfacet
  facet normal  0.000000e+00  1.000000e+00  0.000000e+00
    outer loop
      vertex   0.000000e+00  1.000000e+00  0.000000e+00
      vertex  -9.951847e-01  1.000000e+00  9.801714e-02
      vertex  -9.807853e-01  1.000000e+00  1.950903e-01
    endloop
  endfacet
  facet normal  0.000000e+00  1.000000e+00  0.000000e+00
    outer loop
      vertex   0.000000e+00  1.000000e+00  0.000000e+00
      vertex  -1.000000e+00  1.000000e+00  1.224606e-16
      vertex  -9.951847e-01  1.000000e+00  9.801714e-02
    endloop
  endfacet
  facet normal  0.000000e+00  1.000000e+00  0.000000e+00
    outer loop
      vertex   0.000000e+00  1.000000e+00  0.000000e+00
      vertex  -9.951847e-01  1.000000e+00 -9.801714e-02
      vertex  -1.000000e+00  1.000000e+00  1.224606e-16
    endloop
  endfacet
  facet normal  0.000000e+00  1.000000e+00  0.000000e+00
    outer loop
      vertex   0.000000e+00  1.000000e+00  0.000000e+00
      vertex  -9.807853e-01  1.000000e+00 -1.950903e-01
      vertex  -9.951847e-01  1.000000e+00 -9.801714e-02
    endloop
  endfacet
  facet normal  0.000000e+00  1.000000e+00  0.000000e+00
    outer loop
      vertex   0.000000e+00  1.000000e+00  0.000000e+00
      vertex  -9.569404e-01  1.000000e+00 -2.902847e-01
      vertex  -9.807853e-01  1.000000e+00 -1.950903e-01
    endloop
  endfacet
  facet normal  0.000000e+00  1.000000e+00  0.000000e+00
    outer loop
      vertex   0.000000e+00  1.000000e+00  0.000000e+00
      vertex  -9.238795e-01  1.000000e+00 -3.826834e-01
      vertex  -9.569404e-01  1.000000e+00 -2.902847e-01
    endloop
  endfacet
  facet normal  0.000000e+00  1.000000e+00  0.000000e+00
    outer loop
      vertex   0.000000e+00  1.000000e+00  0.000000e+00
      vertex  -8.819213e-01  1.000000e+00 -4.713967e-01
      vertex  -9.238795e-01  1.000000e+00 -3.826834e-01
    endloop
  endfacet
  facet normal  0.000000e+00  1.000000e+00  0.000000e+00
    outer loop
      vertex   0.000000e+00  1.000000e+00  0.000000e+00
      vertex  -8.314696e-01  1.000000e+00 -5.555702e-01
      vertex  -8.819213e-01  1.000000e+00 -4.713967e-01
    endloop
  endfacet
  facet normal  0.000000e+00  1.000000e+00  0.000000e+00
    outer loop
      vertex   0.000000e+00  1.000000e+00  0.000000e+00
      vertex  -7.730104e-01  1.000000e+00 -6.343933e-01
      vertex  -8.314696e-01  1.000000e+00 -5.555702e-01
    endloop
  endfacet
  facet normal  0.000000e+00  1.000000e+00  0.000000e+00
    outer loop
      vertex   0.000000e+00  1.000000e+00  0.000000e+00
      vertex  -7.071068e-01  1.000000e+00 -7.071068e-01
      vertex  -7.730104e-01  1.000000e+00 -6.343933e-01
    endloop
  endfacet
  facet normal  0.000000e+00  1.000000e+00  0.000000e+00
    outer loop
      vertex   0.000000e+00  1.000000e+00  0.000000e+00
      vertex  -6.343933e-01  1.000000e+00 -7.730104e-01
      vertex  -7.071068e-01  1.000000e+00 -7.071068e-01
    endloop
  endfacet
  facet normal  0.000000e+00  1.000000e+00  0.000000e+00
    outer loop
      vertex   0.000000e+00  1.000000e+00  0.000000e+00
      vertex  -5.555702e-01  1.000000e+00 -8.314696e-01
      vertex  -6.343933e-01  1.000000e+00 -7.730104e-01
    endloop
  endfacet
  facet normal  0.000000e+00  1.000000e+00  0.000000e+00
    outer loop
      vertex   0.000000e+00  1.000000e+00  0.000000e+00
      vertex  -4.713967e-01  1.000000e+00 -8.819213e-01
      vertex  -5.555702e-01  1.000000e+00 -8.314696e-01
    endloop
  endfacet
  facet normal  0.000000e+00  1.000000e+00  0.000000e+00
    outer loop
      vertex   0.000000e+00  1.000000e+00  0.000000e+00
      vertex  -3.826834e-01  1.000000e+00 -9.238795e-01
      vertex  -4.713967e-01  1.000000e+00 -8.819213e-01
    endloop
  endfacet
  facet normal  0.000000e+00  1.000000e+00  0.000000e+00
    outer loop
      vertex   0.000000e+00  1.000000e+00  0.000000e+00
      vertex  -2.902847e-01  1.000000e+00 -9.569404e-01
      vertex  -3.826834e-01  1.000000e+00 -9.238795e-01
    endloop
  endfacet
  facet normal  0.000000e+00  1.000000e+00  0.000000e+00
    outer loop
      vertex   0.000000e+00  1.000000e+00  0.000000e+00
      vertex  -1.950903e-01  1.000000e+00 -9.807853e-01
      vertex  -2.902847e-01  1.000000e+00 -9.569404e-01
    endloop
  endfacet
  facet normal  0.000000e+00  1.000000e+00  0.000000e+00
    outer loop
      vertex   0.000000e+00  1.000000e+00  0.000000e+00
      vertex  -9.801714e-02  1.000000e+00 -9.951847e-01
      vertex  -1.950903e-01  1.000000e+00 -9.807853e-01
    endloop
  endfacet
  facet normal  0.000000e+00  1.000000e+00  0.000000e+00
    outer loop
      vertex   0.000000e+00  1.000000e+00  0.000000e+00
      vertex  -1.836910e-16  1.000000e+00 -1.000000e+00
      vertex  -9.801714e-02  1.000000e+00 -9.951847e-01
    endloop
  endfacet
  facet normal  0.000000e+00  1.000000e+00  0.000000e+00
    outer loop
      vertex   0.000000e+00  1.000000e+00  0.000000e+00
      vertex   9.801714e-02  1.000000e+00 -9.951847e-01
      vertex  -1.836910e-16  1.000000e+00 -1.000000e+00
    endloop
  endfacet
  facet normal  0.000000e+00  1.000000e+00  0.000000e+00
    outer loop
      vertex   0.000000e+00  1.000000e+00  0.000000e+00
      vertex   1.950903e-01  1.000000e+00 -9.807853e-01
      vertex   9.801714e-02  1.000000e+00 -9.951847e-01
    endloop
  endfacet
  facet normal  0.000000e+00  1.000000e+00  0.000000e+00
    outer loop
      vertex   0.000000e+00  1.000000e+00  0.000000e+00
      vertex   2.902847e-01  1.000000e+00 -9.569404e-01
      vertex   1.950903e-01  1.000000e+00 -9.807853e-01
    endloop
  endfacet
  facet normal  0.000000e+00  1.000000e+00  0.000000e+00
    outer loop
      vertex   0.000000e+00  1.000000e+00  0.000000e+00
      vertex   3.826834e-01  1.000000e+00 -9.238795e-01
      vertex   2.902847e-01  1.000000e+00 -9.569404e-01
    endloop
  endfacet
  facet normal  0.000000e+00  1.000000e+00  0.000000e+00
    outer loop
      vertex   0.000000e+00  1.000000e+00  0.000000e+00
      vertex   4.713967e-01  1.000000e+00 -8.819213e-01
      vertex   3.826834e-01  1.000000e+00 -9.238795e-01
    endloop
  endfacet
  facet normal  0.000000e+00  1.000000e+00  0.000000e+00
    outer loop
      vertex   0.000000e+00  1.000000e+00  0.000000e+00
      vertex   5.555702e-01  1.000000e+00 -8.314696e-01
      vertex   4.713967e-01  1.000000e+00 -8.819213e-01
    endloop
  endfacet
  facet normal  0.000000e+00  1.000000e+00  0.000000e+00
    outer loop
      vertex   0.000000e+00  1.000000e+00  0.000000e+00
      vertex   6.343933e-01  1.000000e+00 -7.730104e-01
      vertex   5.555702e-01  1.000000e+00 -8.314696e-01
    endloop
  endfacet
  facet normal  0.000000e+00  1.000000e+00  0.000000e+00
    outer loop
      vertex   0.000000e+00  1.000000e+00  0.000000e+00
      vertex   7.071068e-01  1.000000e+00 -7.071068e-01
      vertex   6.343933e-01  1.000000e+00 -7.730104e-01
    endloop
  endfacet
  facet normal  0.000000e+00  1.000000e+00  0.000000e+00
    outer loop
      vertex   0.000000e+00  1.000000e+00  0.000000e+00
      vertex   7.730104e-01  1.000000e+00 -6.343933e-01
      vertex   7.071068e-01  1.000000e+00 -7.071068e-01
    endloop
  endfacet
  facet normal  0.000000e+00  1.000000e+00  0.000000e+00
    outer loop
      vertex   0.000000e+00  1.000000e+00  0.000000e+00
      vertex   8.314696e-01  1.000000e+00 -5.555702e-01
      vertex   7.730104e-01  1.000000e+00 -6.343933e-01
    endloop
  endfacet
  facet normal  0.000000e+00  1.000000e+00  0.000000e+00
    outer loop
      vertex   0.000000e+00  1.000000e+00  0.000000e+00
      vertex   8.819213e-01  1.000000e+00 -4.713967e-01
      vertex   8.314696e-01  1.000000e+00 -5.555702e-01
    endloop
  endfacet
  facet normal  0.000000e+00  1.000000e+00  0.000000e+00
    outer loop
      vertex   0.000000e+00  1.000000e+00  0.000000e+00
      vertex   9.238795e-01  1.000000e+00 -3.826834e-01
      vertex   8.819213e-01  1.000000e+00 -4.713967e-01
    endloop
  endfacet
  facet normal  0.000000e+00  1.000000e+00  0.000000e+00
    outer loop
      vertex   0.000000e+00  1.000000e+00  0.000000e+00
      vertex   9.569404e-01  1.000000e+00 -2.902847e-01
      vertex   9.238795e-01  1.000000e+00 -3.826834e-01
    endloop
  endfacet
  facet normal  0.000000e+00  1.000000e+00  0.000000e+00
    outer loop
      vertex   0.000000e+00  1.000000e+00  0.000000e+00
      vertex   9.807853e-01  1.000000e+00 -1.950903e-01
      vertex   9.569404e-01  1.000000e+00 -2.902847e-01
    endloop
  endfacet
  facet normal  0.000000e+00  1.000000e+00  0.000000e+00
    outer loop
      vertex   0.000000e+00  1.000000e+00  0.000000e+00
      vertex   9.951847e-01  1.000000e+00 -9.801714e-02
      vertex   9.807853e-01  1.000000e+00 -1.950903e-01
    endloop
  endfacet
  facet normal -0.000000e+00  1.000000e+00  0.000000e+00
    outer loop
      vertex   0.000000e+00  1.000000e+00  0.000000e+00
      vertex   1.000000e+00  1.000000e+00  0.000000e+00
      vertex   9.951847e-01  1.000000e+00 -9.801714e-02
    endloop
  endfacet
  facet normal  8.935649e-01 -4.467825e-01  4.389809e-02
    outer loop
      vertex   0.000000e+00 -1.000000e+00  0.000000e+00
      vertex   1.000000e+00  1.000000e+00  0.000000e+00
      vertex   9.951847e-01  1.000000e+00  9.801714e-02
    endloop
  endfacet
  facet normal  8.849595e-01 -4.467825e-01  1.312715e-01
    outer loop
      vertex   0.000000e+00 -1.000000e+00  0.000000e+00
      vertex   9.951847e-01  1.000000e+00  9.801714e-02
      vertex   9.807853e-01  1.000000e+00  1.950903e-01
    endloop
  endfacet
  facet normal  8.678314e-01 -4.467825e-01  2.173801e-01
    outer loop
      vertex   0.000000e+00 -1.000000e+00  0.000000e+00
      vertex   9.807853e-01  1.000000e+00  1.950903e-01
      vertex   9.569404e-01  1.000000e+00  2.902847e-01
    endloop
  endfacet
  facet normal  8.423453e-01 -4.467825e-01  3.013964e-01
    outer loop
      vertex   0.000000e+00 -1.000000e+00  0.000000e+00
      vertex   9.569404e-01  1.000000e+00  2.902847e-01
      vertex   9.238795e-01  1.000000e+00  3.826834e-01
    endloop
  endfacet
  facet normal  8.087476e-01 -4.467825e-01  3.825085e-01
    outer loop
      vertex   0.000000e+00 -1.000000e+00  0.000000e+00
      vertex   9.238795e-01  1.000000e+00  3.826834e-01
      vertex   8.819213e-01  1.000000e+00  4.713967e-01
    endloop
  endfacet
  facet normal  7.673604e-01 -4.467825e-01  4.599385e-01
    outer loop
      vertex   0.000000e+00 -1.000000e+00  0.000000e+00
      vertex   8.819213e-01  1.000000e+00  4.713967e-01
      vertex   8.314696e-01  1.000000e+00  5.555702e-01
    endloop
  endfacet
  facet normal  7.185836e-01 -4.467824e-01  5.329381e-01
    outer loop
      vertex   0.000000e+00 -1.000000e+00  0.000000e+00
      vertex   8.314696e-01  1.000000e+00  5.555702e-01
      vertex   7.730104e-01  1.000000e+00  6.343933e-01
    endloop
  endfacet
  facet normal  6.628864e-01 -4.467826e-01  6.008052e-01
    outer loop
      vertex   0.000000e+00 -1.000000e+00  0.000000e+00
      vertex   7.730104e-01  1.000000e+00  6.343933e-01
      vertex   7.071068e-01  1.000000e+00  7.071068e-01
    endloop
  endfacet
  facet normal  6.008052e-01 -4.467826e-01  6.628864e-01
    outer loop
      vertex   0.000000e+00 -1.000000e+00  0.000000e+00
      vertex   7.071068e-01  1.000000e+00  7.071068e-01
      vertex   6.343933e-01  1.000000e+00  7.730104e-01
    endloop
  endfacet
  facet normal  5.329381e-01 -4.467824e-01  7.185836e-01
    outer loop
      vertex   0.000000e+00 -1.000000e+00  0.000000e+00
      vertex   6.343933e-01  1.000000e+00  7.730104e-01
      vertex   5.555702e-01  1.000000e+00  8.314696e-01
    endloop
  endfacet
  facet normal  4.599385e-01 -4.467825e-01  7.673604e-01
    outer loop
      vertex   0.000000e+00 -1.000000e+00  0.000000e+00
      vertex   5.555702e-01  1.000000e+00  8.314696e-01
      vertex   4.713967e-01  1.000000e+00  8.819213e-01
    endloop
  endfacet
  facet normal  3.825085e-01 -4.467825e-01  8.087476e-01
    outer loop
      vertex   0.000000e+00 -1.000000e+00  0.000000e+00
      vertex   4.713967e-01  1.000000e+00  8.819213e-01
      vertex   3.826834e-01  1.000000e+00  9.238795e-01
    endloop
  endfacet
  facet normal  3.013964e-01 -4.467825e-01  8.423453e-01
    outer loop
      vertex   0.000000e+00 -1.000000e+00  0.000000e+00
      vertex   3.826834e-01  1.000000e+00  9.238795e-01
      vertex   2.902847e-01  1.000000e+00  9.569404e-01
    endloop
  endfacet
  facet normal  2.173800e-01 -4.467825e-01  8.678313e-01
    outer loop
      vertex   0.000000e+00 -1.000000e+00  0.000000e+00
      vertex   2.902847e-01  1.000000e+00  9.569404e-01
      vertex   1.950903e-01  1.000000e+00  9.807853e-01
    endloop
  endfacet
  facet normal  1.312715e-01 -4.467825e-01  8.849595e-01
    outer loop
      vertex   0.000000e+00 -1.000000e+00  0.000000e+00
      vertex   1.950903e-01  1.000000e+00  9.807853e-01
      vertex   9.801714e-02  1.000000e+00  9.951847e-01
    endloop
  endfacet
  facet normal  4.389809e-02 -4.467825e-01  8.935649e-01
    outer loop
      vertex   0.000000e+00 -1.000000e+00  0.000000e+00
      vertex   9.801714e-02  1.000000e+00  9.951847e-01
      vertex   6.123032e-17  1.000000e+00  1.000000e+00
    endloop
  endfacet
  facet normal -4.389809e-02 -4.467825e-01  8.935649e-01
    outer loop
      vertex   0.000000e+00 -1.000000e+00  0.000000e+00
      vertex   6.123032e-17  1.000000e+00  1.000000e+00
      vertex  -9.801714e-02  1.000000e+00  9.951847e-01
    endloop
  endfacet
  facet normal -1.312715e-01 -4.467825e-01  8.849595e-01
    outer loop
      vertex   0.000000e+00 -1.000000e+00  0.000000e+00
      vertex  -9.801714e-02  1.000000e+00  9.951847e-01
      vertex  -1.950903e-01  1.000000e+00  9.807853e-01
    endloop
  endfacet
  facet normal -2.173800e-01 -4.467825e-01  8.678313e-01
    outer loop
      vertex   0.000000e+00 -1.000000e+00  0.000000e+00
      vertex  -1.950903e-01  1.000000e+00  9.807853e-01
      vertex  -2.902847e-01  1.000000e+00  9.569404e-01
    endloop
  endfacet
  facet normal -3.013964e-01 -4.467825e-01  8.423453e-01
    outer loop
      vertex   0.000000e+00 -1.000000e+00  0.000000e+00
      vertex  -2.902847e-01  1.000000e+00  9.569404e-01
      vertex  -3.826834e-01  1.000000e+00  9.238795e-01
    endloop
  endfacet
  facet normal -3.825085e-01 -4.467825e-01  8.087476e-01
    outer loop
      vertex   0.000000e+00 -1.000000e+00  0.000000e+00
      vertex  -3.826834e-01  1.000000e+00  9.238795e-01
      vertex  -4.713967e-01  1.000000e+00  8.819213e-01
    endloop
  endfacet
  facet normal -4.599385e-01 -4.467825e-01  7.673604e-01
    outer loop
      vertex   0.000000e+00 -1.000000e+00  0.000000e+00
      vertex  -4.713967e-01  1.000000e+00  8.819213e-01
      vertex  -5.555702e-01  1.000000e+00  8.314696e-01
    endloop
  endfacet
  facet normal -5.329381e-01 -4.467824e-01  7.185836e-01
    outer loop
      vertex   0.000000e+00 -1.000000e+00  0.000000e+00
      vertex  -5.555702e-01  1.000000e+00  8.314696e-01
      vertex  -6.343933e-01  1.000000e+00  7.730104e-01
    endloop
  endfacet
  facet normal -6.008052e-01 -4.467826e-01  6.628864e-01
    outer loop
      vertex   0.000000e+00 -1.000000e+00  0.000000e+00
      vertex  -6.343933e-01  1.000000e+00  7.730104e-01
      vertex  -7.071068e-01  1.000000e+00  7.071068e-01
    endloop
  endfacet
  facet normal -6.628864e-01 -4.467826e-01  6.008052e-01
    outer loop
      vertex   0.000000e+00 -1.000000e+00  0.000000e+00
      vertex  -7.071068e-01  1.000000e+00  7.071068e-01
      vertex  -7.730104e-01  1.000000e+00  6.343933e-01
    endloop
  endfacet
  facet normal -7.185836e-01 -4.467824e-01  5.329381e-01
    outer loop
      vertex   0.000000e+00 -1.000000e+00  0.000000e+00
      vertex  -7.730104e-01  1.000000e+00  6.343933e-01
      vertex  -8.314696e-01  1.000000e+00  5.555702e-01
    endloop
  endfacet
  facet normal -7.673604e-01 -4.467825e-01  4.599385e-01
    outer loop
      vertex   0.000000e+00 -1.000000e+00  0.000000e+00
      vertex  -8.314696e-01  1.000000e+00  5.555702e-01
      vertex  -8.819213e-01  1.000000e+00  4.713967e-01
    endloop
  endfacet
  facet normal -8.087476e-01 -4.467825e-01  3.825085e-01
    outer loop
      vertex   0.000000e+00 -1.000000e+00  0.000000e+00
      vertex  -8.819213e-01  1.000000e+00  4.713967e-01
      vertex  -9.238795e-01  1.000000e+00  3.826834e-01
    endloop
  endfacet
  facet normal -8.423453e-01 -4.467825e-01  3.013964e-01
    outer loop
      vertex   0.000000e+00 -1.000000e+00  0.000000e+00
      vertex  -9.238795e-01  1.000000e+00  3.826834e-01
      vertex  -9.569404e-01  1.000000e+00  2.902847e-01
    endloop
  endfacet
  facet normal -8.678314e-01 -4.467825e-01  2.173801e-01
    outer loop
      vertex   0.000000e+00 -1.000000e+00  0.000000e+00
      vertex  -9.569404e-01  1.000000e+00  2.902847e-01
      vertex  -9.807853e-01  1.000000e+00  1.950903e-01
    endloop
  endfacet
  facet normal -8.849595e-01 -4.467825e-01  1.312715e-01
    outer loop
      vertex   0.000000e+00 -1.000000e+00  0.000000e+00
      vertex  -9.807853e-01  1.000000e+00  1.950903e-01
      vertex  -9.951847e-01  1.000000e+00  9.801714e-02
    endloop
  endfacet
  facet normal -8.935649e-01 -4.467825e-01  4.389809e-02
    outer loop
      vertex   0.000000e+00 -1.000000e+00  0.000000e+00
      vertex  -9.951847e-01  1.000000e+00  9.801714e-02
      vertex  -1.000000e+00  1.000000e+00  1.224606e-16
    endloop
  endfacet
  facet normal -8.935649e-01 -4.467825e-01 -4.389809e-02
    outer loop
      vertex   0.000000e+00 -1.000000e+00  0.000000e+00
      vertex  -1.000000e+00  1.000000e+00  1.224606e-16
      vertex  -9.951847e-01  1.000000e+00 -9.801714e-02
    endloop
  endfacet
  facet normal -8.849595e-01 -4.467825e-01 -1.312715e-01
    outer loop
      vertex   0.000000e+00 -1.000000e+00  0.000000e+00
      vertex  -9.951847e-01  1.000000e+00 -9.801714e-02
      vertex  -9.807853e-01  1.000000e+00 -1.950903e-01
    endloop
  endfacet
  facet normal -8.678314e-01 -4.467825e-01 -2.173801e-01
    outer loop
      vertex   0.000000e+00 -1.000000e+00  0.000000e+00
      vertex  -9.807853e-01  1.000000e+00 -1.950903e-01
      vertex  -9.569404e-01  1.000000e+00 -2.902847e-01
    endloop
  endfacet
  facet normal -8.423453e-01 -4.467825e-01 -3.013964e-01
    outer loop
      vertex   0.000000e+00 -1.000000e+00  0.000000e+00
      vertex  -9.569404e-01  1.000000e+00 -2.902847e-01
      vertex  -9.238795e-01  1.000000e+00 -3.826834e-01
    endloop
  endfacet
  facet normal -8.087476e-01 -4.467825e-01 -3.825085e-01
    outer loop
      vertex   0.000000e+00 -1.000000e+00  0.000000e+00
      vertex  -9.238795e-01  1.000000e+00 -3.826834e-01
      vertex  -8.819213e-01  1.000000e+00 -4.713967e-01
    endloop
  endfacet
  facet normal -7.673604e-01 -4.467825e-01 -4.599385e-01
    outer loop
      vertex   0.000000e+00 -1.000000e+00  0.000000e+00
      vertex  -8.819213e-01  1.000000e+00 -4.713967e-01
      vertex  -8.314696e-01  1.000000e+00 -5.555702e-01
    endloop
  endfacet
  facet normal -7.185836e-01 -4.467824e-01 -5.329381e-01
    outer loop
      vertex   0.000000e+00 -1.000000e+00  0.000000e+00
      vertex  -8.314696e-01  1.000000e+00 -5.555702e-01
      vertex  -7.730104e-01  1.000000e+00 -6.343933e-01
    endloop
  endfacet
  facet normal -6.628864e-01 -4.467826e-01 -6.008052e-01
    outer loop
      vertex   0.000000e+00 -1.000000e+00  0.000000e+00
      vertex  -7.730104e-01  1.000000e+00 -6.343933e-01
      vertex  -7.071068e-01  1.000000e+00 -7.071068e-01
    endloop
  endfacet
  facet normal -6.008052e-01 -4.467826e-01 -6.628864e-01
    outer loop
      vertex   0.000000e+00 -1.000000e+00  0.000000e+00
      vertex  -7.071068e-01  1.000000e+00 -7.071068e-01
      vertex  -6.343933e-01  1.000000e+00 -7.730104e-01
    endloop
  endfacet
  facet normal -5.329381e-01 -4.467824e-01 -7.185836e-01
    outer loop
      vertex   0.000000e+00 -1.000000e+00  0.000000e+00
      vertex  -6.343933e-01  1.000000e+00 -7.730104e-01
      vertex  -5.555702e-01  1.000000e+00 -8.314696e-01
    endloop
  endfacet
  facet normal -4.599385e-01 -4.467825e-01 -7.673604e-01
    outer loop
      vertex   0.000000e+00 -1.000000e+00  0.000000e+00
      vertex  -5.555702e-01  1.000000e+00 -8.314696e-01
      vertex  -4.713967e-01  1.000000e+00 -8.819213e-01
    endloop
  endfacet
  facet normal -3.825085e-01 -4.467825e-01 -8.087476e-01
    outer loop
      vertex   0.000000e+00 -1.000000e+00  0.000000e+00
      vertex  -4.713967e-01  1.000000e+00 -8.819213e-01
      vertex  -3.826834e-01  1.000000e+00 -9.238795e-01
    endloop
  endfacet
  facet normal -3.013964e-01 -4.467825e-01 -8.423453e-01
    outer loop
      vertex   0.000000e+00 -1.000000e+00  0.000000e+00
      vertex  -3.826834e-01  1.000000e+00 -9.238795e-01
      vertex  -2.902847e-01  1.000000e+00 -9.569404e-01
    endloop
  endfacet
  facet normal -2.173800e-01 -4.467825e-01 -8.678313e-01
    outer loop
      vertex   0.000000e+00 -1.000000e+00  0.000000e+00
      vertex  -2.902847e-01  1.000000e+00 -9.569404e-01
      vertex  -1.950903e-01  1.000000e+00 -9.807853e-01
    endloop
  endfacet
  facet normal -1.312715e-01 -4.467825e-01 -8.849595e-01
    outer loop
      vertex   0.000000e+00 -1.000000e+00  0.000000e+00
      vertex  -1.950903e-01  1.000000e+00 -9.807853e-01
      vertex  -9.801714e-02  1.000000e+00 -9.951847e-01
    endloop
  endfacet
  facet normal -4.389809e-02 -4.467825e-01 -8.935649e-01
    outer loop
      vertex   0.000000e+00 -1.000000e+00  0.000000e+00
      vertex  -9.801714e-02  1.000000e+00 -9.951847e-01
      vertex  -1.836910e-16  1.000000e+00 -1.000000e+00
    endloop
  endfacet
  facet normal  4.389809e-02 -4.467825e-01 -8.935649e-01
    outer loop
      vertex   0.000000e+00 -1.000000e+00  0.000000e+00
      vertex  -1.836910e-16  1.000000e+00 -1.000000e+00
      vertex   9.801714e-02  1.000000e+00 -9.951847e-01
    endloop
  endfacet
  facet normal  1.312715e-01 -4.467825e-01 -8.849595e-01
    outer loop
      vertex   0.000000e+00 -1.000000e+00  0.000000e+00
      vertex   9.801714e-02  1.000000e+00 -9.951847e-01
      vertex   1.950903e-01  1.000000e+00 -9.807853e-01
    endloop
  endfacet
  facet normal  2.173800e-01 -4.467825e-01 -8.678313e-01
    outer loop
      vertex   0.000000e+00 -1.000000e+00  0.000000e+00
      vertex   1.950903e-01  1.000000e+00 -9.807853e-01
      vertex   2.902847e-01  1.000000e+00 -9.569404e-01
    endloop
  endfacet
  facet normal  3.013964e-01 -4.467825e-01 -8.423453e-01
    outer loop
      vertex   0.000000e+00 -1.000000e+00  0.000000e+00
      vertex   2.902847e-01  1.000000e+00 -9.569404e-01
      vertex   3.826834e-01  1.000000e+00 -9.238795e-01
    endloop
  endfacet
  facet normal  3.825085e-01 -4.467825e-01 -8.087476e-01
    outer loop
      vertex   0.000000e+00 -1.000000e+00  0.000000e+00
      vertex   3.826834e-01  1.000000e+00 -9.238795e-01
      vertex   4.713967e-01  1.000000e+00 -8.819213e-01
    endloop
  endfacet
  facet normal  4.599385e-01 -4.467825e-01 -7.673604e-01
    outer loop
      vertex   0.000000e+00 -1.000000e+00  0.000000e+00
      vertex   4.713967e-01  1.000000e+00 -8.819213e-01
      vertex   5.555702e-01  1.000000e+00 -8.314696e-01
    endloop
  endfacet
  facet normal  5.329381e-01 -4.467824e-01 -7.185836e-01
    outer loop
      vertex   0.000000e+00 -1.000000e+00  0.000000e+00
      vertex   5.555702e-01  1.000000e+00 -8.314696e-01
      vertex   6.343933e-01  1.000000e+00 -7.730104e-01
    endloop
  endfacet
  facet normal  6.008052e-01 -4.467826e-01 -6.628864e-01
    outer loop
      vertex   0.000000e+00 -1.000000e+00  0.000000e+00
      vertex   6.343933e-01  1.000000e+00 -7.730104e-01
      vertex   7.071068e-01  1.000000e+00 -7.071068e-01
    endloop
  endfacet
  facet normal  6.628864e-01 -4.467826e-01 -6.008052e-01
    outer loop
      vertex   0.000000e+00 -1.000000e+00  0.000000e+00
      vertex   7.071068e-01  1.000000e+00 -7.071068e-01
      vertex   7.730104e-01  1.000000e+00 -6.343933e-01
    endloop
  endfacet
  facet normal  7.185836e-01 -4.467824e-01 -5.329381e-01
    outer loop
      vertex   0.000000e+00 -1.000000e+00  0.000000e+00
      vertex   7.730104e-01  1.000000e+00 -6.343933e-01
      vertex   8.314696e-01  1.000000e+00 -5.555702e-01
    endloop
  endfacet
  facet normal  7.673604e-01 -4.467825e-01 -4.599385e-01
    outer loop
      vertex   0.000000e+00 -1.000000e+00  0.000000e+00
      vertex   8.314696e-01  1.000000e+00 -5.555702e-01
      vertex   8.819213e-01  1.000000e+00 -4.713967e-01
    endloop
  endfacet
  facet normal  8.087476e-01 -4.467825e-01 -3.825085e-01
    outer loop
      vertex   0.000000e+00 -1.000000e+00  0.000000e+00
      vertex   8.819213e-01  1.000000e+00 -4.713967e-01
      vertex   9.238795e-01  1.000000e+00 -3.826834e-01
    endloop
  endfacet
  facet normal  8.423453e-01 -4.467825e-01 -3.013964e-01
    outer loop
      vertex   0.000000e+00 -1.000000e+00  0.000000e+00
      vertex   9.238795e-01  1.000000e+00 -3.826834e-01
      vertex   9.569404e-01  1.000000e+00 -2.902847e-01
    endloop
  endfacet
  facet normal  8.678314e-01 -4.467825e-01 -2.173801e-01
    outer loop
      vertex   0.000000e+00 -1.000000e+00  0.000000e+00
      vertex   9.569404e-01  1.000000e+00 -2.902847e-01
      vertex   9.807853e-01  1.000000e+00 -1.950903e-01
    endloop
  endfacet
  facet normal  8.849595e-01 -4.467825e-01 -1.312715e-01
    outer loop
      vertex   0.000000e+00 -1.000000e+00  0.000000e+00
      vertex   9.807853e-01  1.000000e+00 -1.950903e-01
      vertex   9.951847e-01  1.000000e+00 -9.801714e-02
    endloop
  endfacet
  facet normal  8.935649e-01 -4.467825e-01 -4.389809e-02
    outer loop
      vertex   0.000000e+00 -1.000000e+00  0.000000e+00
      vertex   9.951847e-01  1.000000e+00 -9.801714e-02
      vertex   1.000000e+00  1.000000e+00  0.000000e+00
    endloop
  endfacet
endsolid vcg
