solid  Processed by ADMesh version 0.95
  facet normal  9.39692616E-01  3.42020154E-01 -1.15287868E-07
    outer loop
      vertex  9.39692616E-01  3.42020124E-01  0.00000000E+00
      vertex  1.28006589E+00 -5.93147635E-01  9.80171412E-02
      vertex  1.28171277E+00 -5.97672462E-01  0.00000000E+00
    endloop
  endfacet
  facet normal  9.39692557E-01  3.42020273E-01  9.88252282E-07
    outer loop
      vertex  9.39692616E-01  3.42020124E-01  0.00000000E+00
      vertex  1.27514088E+00 -5.79616606E-01  1.95090294E-01
      vertex  1.28006589E+00 -5.93147635E-01  9.80171412E-02
    endloop
  endfacet
  facet normal  9.39692676E-01  3.42019975E-01 -5.62961077E-07
    outer loop
      vertex  9.39692616E-01  3.42020124E-01  0.00000000E+00
      vertex  1.26698554E+00 -5.57209730E-01  2.90284693E-01
      vertex  1.27514088E+00 -5.79616606E-01  1.95090294E-01
    endloop
  endfacet
  facet normal  9.39692557E-01  3.42020392E-01  7.47508125E-07
    outer loop
      vertex  9.39692616E-01  3.42020124E-01  0.00000000E+00
      vertex  1.25567794E+00 -5.26142597E-01  3.82683396E-01
      vertex  1.26698554E+00 -5.57209730E-01  2.90284693E-01
    endloop
  endfacet
  facet normal  9.39692676E-01  3.42020005E-01 -1.46522780E-07
    outer loop
      vertex  9.39692616E-01  3.42020124E-01  0.00000000E+00
      vertex  1.24132740E+00 -4.86714810E-01  4.71396714E-01
      vertex  1.25567794E+00 -5.26142597E-01  3.82683396E-01
    endloop
  endfacet
  facet normal  9.39692795E-01  3.42019677E-01 -6.51005394E-07
    outer loop
      vertex  9.39692616E-01  3.42020124E-01  0.00000000E+00
      vertex  1.22407198E+00 -4.39305693E-01  5.55570185E-01
      vertex  1.24132740E+00 -4.86714810E-01  4.71396714E-01
    endloop
  endfacet
  facet normal  9.39692557E-01  3.42020392E-01  2.90768213E-07
    outer loop
      vertex  9.39692616E-01  3.42020124E-01  0.00000000E+00
      vertex  1.20407772E+00 -3.84371996E-01  6.34393275E-01
      vertex  1.22407198E+00 -4.39305693E-01  5.55570185E-01
    endloop
  endfacet
  facet normal  9.39692676E-01  3.42019916E-01 -9.74334782E-08
    outer loop
      vertex  9.39692616E-01  3.42020124E-01  0.00000000E+00
      vertex  1.18153739E+00 -3.22442919E-01  7.07106829E-01
      vertex  1.20407772E+00 -3.84371996E-01  6.34393275E-01
    endloop
  endfacet
  facet normal  9.39692736E-01  3.42019856E-01 -3.56842008E-07
    outer loop
      vertex  9.39692616E-01  3.42020124E-01  0.00000000E+00
      vertex  1.15666795E+00 -2.54114538E-01  7.73010373E-01
      vertex  1.18153739E+00 -3.22442919E-01  7.07106829E-01
    endloop
  endfacet
  facet normal  9.39692676E-01  3.42020005E-01 -2.08672688E-07
    outer loop
      vertex  9.39692616E-01  3.42020124E-01  0.00000000E+00
      vertex  1.12970889E+00 -1.80045068E-01  8.31469595E-01
      vertex  1.15666795E+00 -2.54114538E-01  7.73010373E-01
    endloop
  endfacet
  facet normal  9.39692497E-01  3.42020422E-01  7.14766557E-08
    outer loop
      vertex  9.39692616E-01  3.42020124E-01  0.00000000E+00
      vertex  1.10091984E+00 -1.00947864E-01  8.81921291E-01
      vertex  1.12970889E+00 -1.80045068E-01  8.31469595E-01
    endloop
  endfacet
  facet normal  9.39692616E-01  3.42020184E-01 -3.01962721E-08
    outer loop
      vertex  9.39692616E-01  3.42020124E-01  0.00000000E+00
      vertex  1.07057810E+00 -1.75846238E-02  9.23879504E-01
      vertex  1.10091984E+00 -1.00947864E-01  8.81921291E-01
    endloop
  endfacet
  facet normal  9.39692497E-01  3.42020541E-01  1.10081544E-07
    outer loop
      vertex  9.39692616E-01  3.42020124E-01  0.00000000E+00
      vertex  1.03897583E+00  6.92417547E-02  9.56940413E-01
      vertex  1.07057810E+00 -1.75846238E-02  9.23879504E-01
    endloop
  endfacet
  facet normal  9.39692855E-01  3.42019439E-01 -2.26839504E-07
    outer loop
      vertex  9.39692616E-01  3.42020124E-01  0.00000000E+00
      vertex  1.00641751E+00  1.58695236E-01  9.80785310E-01
      vertex  1.03897583E+00  6.92417547E-02  9.56940413E-01
    endloop
  endfacet
  facet normal  9.39692020E-01  3.42021853E-01  2.70891661E-07
    outer loop
      vertex  9.39692616E-01  3.42020124E-01  0.00000000E+00
      vertex  9.73216355E-01  2.49914140E-01  9.95184720E-01
      vertex  1.00641751E+00  1.58695236E-01  9.80785310E-01
    endloop
  endfacet
  facet normal  9.39692914E-01  3.42019260E-01 -0.00000000E+00
    outer loop
      vertex  9.39692616E-01  3.42020124E-01  0.00000000E+00
      vertex  9.39692616E-01  3.42020124E-01  1.00000000E+00
      vertex  9.73216355E-01  2.49914140E-01  9.95184720E-01
    endloop
  endfacet
  facet normal  9.39692318E-01  3.42020959E-01 -0.00000000E+00
    outer loop
      vertex  9.39692616E-01  3.42020124E-01  0.00000000E+00
      vertex  9.06168699E-01  4.34126079E-01  9.95184720E-01
      vertex  9.39692616E-01  3.42020124E-01  1.00000000E+00
    endloop
  endfacet
  facet normal  9.39692795E-01  3.42019588E-01  1.43320477E-07
    outer loop
      vertex  9.39692616E-01  3.42020124E-01  0.00000000E+00
      vertex  8.72967780E-01  5.25345027E-01  9.80785310E-01
      vertex  9.06168699E-01  4.34126079E-01  9.95184720E-01
    endloop
  endfacet
  facet normal  9.39692914E-01  3.42019349E-01  2.05876233E-07
    outer loop
      vertex  9.39692616E-01  3.42020124E-01  0.00000000E+00
      vertex  8.40409458E-01  6.14798546E-01  9.56940413E-01
      vertex  8.72967780E-01  5.25345027E-01  9.80785310E-01
    endloop
  endfacet
  facet normal  9.39692259E-01  3.42021137E-01 -4.08913394E-07
    outer loop
      vertex  9.39692616E-01  3.42020124E-01  0.00000000E+00
      vertex  8.08807135E-01  7.01624870E-01  9.23879504E-01
      vertex  8.40409458E-01  6.14798546E-01  9.56940413E-01
    endloop
  endfacet
  facet normal  9.39692974E-01  3.42019081E-01  5.24657366E-07
    outer loop
      vertex  9.39692616E-01  3.42020124E-01  0.00000000E+00
      vertex  7.78465509E-01  7.84988165E-01  8.81921291E-01
      vertex  8.08807135E-01  7.01624870E-01  9.23879504E-01
    endloop
  endfacet
  facet normal  9.39692616E-01  3.42020154E-01 -4.09457463E-08
    outer loop
      vertex  9.39692616E-01  3.42020124E-01  0.00000000E+00
      vertex  7.49676466E-01  8.64085376E-01  8.31469595E-01
      vertex  7.78465509E-01  7.84988165E-01  8.81921291E-01
    endloop
  endfacet
  facet normal  9.39692736E-01  3.42019886E-01  1.42102010E-07
    outer loop
      vertex  9.39692616E-01  3.42020124E-01  0.00000000E+00
      vertex  7.22717404E-01  9.38154876E-01  7.73010373E-01
      vertex  7.49676466E-01  8.64085376E-01  8.31469595E-01
    endloop
  endfacet
  facet normal  9.39692199E-01  3.42021286E-01 -1.09554639E-06
    outer loop
      vertex  9.39692616E-01  3.42020124E-01  0.00000000E+00
      vertex  6.97847784E-01  1.00648320E+00  7.07106829E-01
      vertex  7.22717404E-01  9.38154876E-01  7.73010373E-01
    endloop
  endfacet
  facet normal  9.39692795E-01  3.42019707E-01  6.38300207E-07
    outer loop
      vertex  9.39692616E-01  3.42020124E-01  0.00000000E+00
      vertex  6.75307512E-01  1.06841230E+00  6.34393275E-01
      vertex  6.97847784E-01  1.00648320E+00  7.07106829E-01
    endloop
  endfacet
  facet normal  9.39692557E-01  3.42020303E-01 -3.12959202E-07
    outer loop
      vertex  9.39692616E-01  3.42020124E-01  0.00000000E+00
      vertex  6.55313253E-01  1.12334597E+00  5.55570185E-01
      vertex  6.75307512E-01  1.06841230E+00  6.34393275E-01
    endloop
  endfacet
  facet normal  9.39692616E-01  3.42020124E-01 -7.05837078E-09
    outer loop
      vertex  9.39692616E-01  3.42020124E-01  0.00000000E+00
      vertex  6.38057768E-01  1.17075503E+00  4.71396714E-01
      vertex  6.55313253E-01  1.12334597E+00  5.55570185E-01
    endloop
  endfacet
  facet normal  9.39692676E-01  3.42020005E-01  2.07711636E-07
    outer loop
      vertex  9.39692616E-01  3.42020124E-01  0.00000000E+00
      vertex  6.23707235E-01  1.21018291E+00  3.82683396E-01
      vertex  6.38057768E-01  1.17075503E+00  4.71396714E-01
    endloop
  endfacet
  facet normal  9.39692616E-01  3.42020154E-01 -1.76043386E-07
    outer loop
      vertex  9.39692616E-01  3.42020124E-01  0.00000000E+00
      vertex  6.12399757E-01  1.24124992E+00  2.90284693E-01
      vertex  6.23707235E-01  1.21018291E+00  3.82683396E-01
    endloop
  endfacet
  facet normal  9.39692616E-01  3.42020154E-01 -1.90778948E-07
    outer loop
      vertex  9.39692616E-01  3.42020124E-01  0.00000000E+00
      vertex  6.04244292E-01  1.26365685E+00  1.95090294E-01
      vertex  6.12399757E-01  1.24124992E+00  2.90284693E-01
    endloop
  endfacet
  facet normal  9.39692616E-01  3.42020124E-01  3.13448595E-07
    outer loop
      vertex  9.39692616E-01  3.42020124E-01  0.00000000E+00
      vertex  5.99319398E-01  1.27718794E+00  9.80171412E-02
      vertex  6.04244292E-01  1.26365685E+00  1.95090294E-01
    endloop
  endfacet
  facet normal  9.39692616E-01  3.42020154E-01 -4.36801599E-07
    outer loop
      vertex  9.39692616E-01  3.42020124E-01  0.00000000E+00
      vertex  5.97672462E-01  1.28171277E+00  1.22460596E-16
      vertex  5.99319398E-01  1.27718794E+00  9.80171412E-02
    endloop
  endfacet
  facet normal  9.39692616E-01  3.42020154E-01  1.88764275E-07
    outer loop
      vertex  9.39692616E-01  3.42020124E-01  0.00000000E+00
      vertex  5.99319398E-01  1.27718794E+00 -9.80171412E-02
      vertex  5.97672462E-01  1.28171277E+00  1.22460596E-16
    endloop
  endfacet
  facet normal  9.39692616E-01  3.42020094E-01 -1.80303459E-07
    outer loop
      vertex  9.39692616E-01  3.42020124E-01  0.00000000E+00
      vertex  6.04244292E-01  1.26365685E+00 -1.95090294E-01
      vertex  5.99319398E-01  1.27718794E+00 -9.80171412E-02
    endloop
  endfacet
  facet normal  9.39692616E-01  3.42020124E-01  1.83993507E-07
    outer loop
      vertex  9.39692616E-01  3.42020124E-01  0.00000000E+00
      vertex  6.12399757E-01  1.24124992E+00 -2.90284693E-01
      vertex  6.04244292E-01  1.26365685E+00 -1.95090294E-01
    endloop
  endfacet
  facet normal  9.39692557E-01  3.42020273E-01  2.19574730E-07
    outer loop
      vertex  9.39692616E-01  3.42020124E-01  0.00000000E+00
      vertex  6.23707235E-01  1.21018291E+00 -3.82683396E-01
      vertex  6.12399757E-01  1.24124992E+00 -2.90284693E-01
    endloop
  endfacet
  facet normal  9.39692676E-01  3.42019975E-01 -4.42821857E-07
    outer loop
      vertex  9.39692616E-01  3.42020124E-01  0.00000000E+00
      vertex  6.38057768E-01  1.17075503E+00 -4.71396714E-01
      vertex  6.23707235E-01  1.21018291E+00 -3.82683396E-01
    endloop
  endfacet
  facet normal  9.39692616E-01  3.42020065E-01 -2.38517970E-08
    outer loop
      vertex  9.39692616E-01  3.42020124E-01  0.00000000E+00
      vertex  6.55313253E-01  1.12334597E+00 -5.55570185E-01
      vertex  6.38057768E-01  1.17075503E+00 -4.71396714E-01
    endloop
  endfacet
  facet normal  9.39692557E-01  3.42020392E-01  2.90768213E-07
    outer loop
      vertex  9.39692616E-01  3.42020124E-01  0.00000000E+00
      vertex  6.75307512E-01  1.06841230E+00 -6.34393275E-01
      vertex  6.55313253E-01  1.12334597E+00 -5.55570185E-01
    endloop
  endfacet
  facet normal  9.39692795E-01  3.42019588E-01 -5.53511825E-07
    outer loop
      vertex  9.39692616E-01  3.42020124E-01  0.00000000E+00
      vertex  6.97847784E-01  1.00648320E+00 -7.07106829E-01
      vertex  6.75307512E-01  1.06841230E+00 -6.34393275E-01
    endloop
  endfacet
  facet normal  9.39692199E-01  3.42021227E-01  1.05993536E-06
    outer loop
      vertex  9.39692616E-01  3.42020124E-01  0.00000000E+00
      vertex  7.22717404E-01  9.38154876E-01 -7.73010373E-01
      vertex  6.97847784E-01  1.00648320E+00 -7.07106829E-01
    endloop
  endfacet
  facet normal  9.39692676E-01  3.42019945E-01 -1.23647524E-07
    outer loop
      vertex  9.39692616E-01  3.42020124E-01  0.00000000E+00
      vertex  7.49676466E-01  8.64085376E-01 -8.31469595E-01
      vertex  7.22717404E-01  9.38154876E-01 -7.73010373E-01
    endloop
  endfacet
  facet normal  9.39692616E-01  3.42020124E-01  1.04362982E-07
    outer loop
      vertex  9.39692616E-01  3.42020124E-01  0.00000000E+00
      vertex  7.78465509E-01  7.84988165E-01 -8.81921291E-01
      vertex  7.49676466E-01  8.64085376E-01 -8.31469595E-01
    endloop
  endfacet
  facet normal  9.39693034E-01  3.42019051E-01 -5.43563715E-07
    outer loop
      vertex  9.39692616E-01  3.42020124E-01  0.00000000E+00
      vertex  8.08807135E-01  7.01624870E-01 -9.23879504E-01
      vertex  7.78465509E-01  7.84988165E-01 -8.81921291E-01
    endloop
  endfacet
  facet normal  9.39692199E-01  3.42021227E-01  4.17712812E-07
    outer loop
      vertex  9.39692616E-01  3.42020124E-01  0.00000000E+00
      vertex  8.40409458E-01  6.14798546E-01 -9.56940413E-01
      vertex  8.08807135E-01  7.01624870E-01 -9.23879504E-01
    endloop
  endfacet
  facet normal  9.39692914E-01  3.42019290E-01 -2.09206888E-07
    outer loop
      vertex  9.39692616E-01  3.42020124E-01  0.00000000E+00
      vertex  8.72967780E-01  5.25345027E-01 -9.80785310E-01
      vertex  8.40409458E-01  6.14798546E-01 -9.56940413E-01
    endloop
  endfacet
  facet normal  9.39692795E-01  3.42019588E-01 -1.42714072E-07
    outer loop
      vertex  9.39692616E-01  3.42020124E-01  0.00000000E+00
      vertex  9.06168699E-01  4.34126079E-01 -9.95184720E-01
      vertex  8.72967780E-01  5.25345027E-01 -9.80785310E-01
    endloop
  endfacet
  facet normal  9.39692318E-01  3.42020959E-01  0.00000000E+00
    outer loop
      vertex  9.39692616E-01  3.42020124E-01  0.00000000E+00
      vertex  9.39692616E-01  3.42020124E-01 -1.00000000E+00
      vertex  9.06168699E-01  4.34126079E-01 -9.95184720E-01
    endloop
  endfacet
  facet normal  9.39692914E-01  3.42019260E-01  0.00000000E+00
    outer loop
      vertex  9.39692616E-01  3.42020124E-01  0.00000000E+00
      vertex  9.73216355E-01  2.49914140E-01 -9.95184720E-01
      vertex  9.39692616E-01  3.42020124E-01 -1.00000000E+00
    endloop
  endfacet
  facet normal  9.39692020E-01  3.42021853E-01 -2.72231034E-07
    outer loop
      vertex  9.39692616E-01  3.42020124E-01  0.00000000E+00
      vertex  1.00641751E+00  1.58695236E-01 -9.80785310E-01
      vertex  9.73216355E-01  2.49914140E-01 -9.95184720E-01
    endloop
  endfacet
  facet normal  9.39692855E-01  3.42019498E-01  2.36162066E-07
    outer loop
      vertex  9.39692616E-01  3.42020124E-01  0.00000000E+00
      vertex  1.03897583E+00  6.92417547E-02 -9.56940413E-01
      vertex  1.00641751E+00  1.58695236E-01 -9.80785310E-01
    endloop
  endfacet
  facet normal  9.39692497E-01  3.42020512E-01 -1.14223099E-07
    outer loop
      vertex  9.39692616E-01  3.42020124E-01  0.00000000E+00
      vertex  1.07057810E+00 -1.75846238E-02 -9.23879504E-01
      vertex  1.03897583E+00  6.92417547E-02 -9.56940413E-01
    endloop
  endfacet
  facet normal  9.39692557E-01  3.42020273E-01  2.69936269E-08
    outer loop
      vertex  9.39692616E-01  3.42020124E-01  0.00000000E+00
      vertex  1.10091984E+00 -1.00947864E-01 -8.81921291E-01
      vertex  1.07057810E+00 -1.75846238E-02 -9.23879504E-01
    endloop
  endfacet
  facet normal  9.39692557E-01  3.42020363E-01 -5.81696540E-08
    outer loop
      vertex  9.39692616E-01  3.42020124E-01  0.00000000E+00
      vertex  1.12970889E+00 -1.80045068E-01 -8.31469595E-01
      vertex  1.10091984E+00 -1.00947864E-01 -8.81921291E-01
    endloop
  endfacet
  facet normal  9.39692676E-01  3.42019975E-01  2.55961567E-07
    outer loop
      vertex  9.39692616E-01  3.42020124E-01  0.00000000E+00
      vertex  1.15666795E+00 -2.54114538E-01 -7.73010373E-01
      vertex  1.12970889E+00 -1.80045068E-01 -8.31469595E-01
    endloop
  endfacet
  facet normal  9.39692736E-01  3.42019767E-01  3.20684848E-07
    outer loop
      vertex  9.39692616E-01  3.42020124E-01  0.00000000E+00
      vertex  1.18153739E+00 -3.22442919E-01 -7.07106829E-01
      vertex  1.15666795E+00 -2.54114538E-01 -7.73010373E-01
    endloop
  endfacet
  facet normal  9.39692616E-01  3.42020094E-01  1.96577673E-07
    outer loop
      vertex  9.39692616E-01  3.42020124E-01  0.00000000E+00
      vertex  1.20407772E+00 -3.84371996E-01 -6.34393275E-01
      vertex  1.18153739E+00 -3.22442919E-01 -7.07106829E-01
    endloop
  endfacet
  facet normal  9.39692557E-01  3.42020303E-01 -3.12959202E-07
    outer loop
      vertex  9.39692616E-01  3.42020124E-01  0.00000000E+00
      vertex  1.22407198E+00 -4.39305693E-01 -5.55570185E-01
      vertex  1.20407772E+00 -3.84371996E-01 -6.34393275E-01
    endloop
  endfacet
  facet normal  9.39692736E-01  3.42019767E-01  6.21952097E-07
    outer loop
      vertex  9.39692616E-01  3.42020124E-01  0.00000000E+00
      vertex  1.24132740E+00 -4.86714810E-01 -4.71396714E-01
      vertex  1.22407198E+00 -4.39305693E-01 -5.55570185E-01
    endloop
  endfacet
  facet normal  9.39692676E-01  3.42020035E-01 -1.61697074E-08
    outer loop
      vertex  9.39692616E-01  3.42020124E-01  0.00000000E+00
      vertex  1.25567794E+00 -5.26142597E-01 -3.82683396E-01
      vertex  1.24132740E+00 -4.86714810E-01 -4.71396714E-01
    endloop
  endfacet
  facet normal  9.39692557E-01  3.42020363E-01 -6.42616726E-07
    outer loop
      vertex  9.39692616E-01  3.42020124E-01  0.00000000E+00
      vertex  1.26698554E+00 -5.57209730E-01 -2.90284693E-01
      vertex  1.25567794E+00 -5.26142597E-01 -3.82683396E-01
    endloop
  endfacet
  facet normal  9.39692676E-01  3.42019975E-01  6.73724230E-07
    outer loop
      vertex  9.39692616E-01  3.42020124E-01  0.00000000E+00
      vertex  1.27514088E+00 -5.79616606E-01 -1.95090294E-01
      vertex  1.26698554E+00 -5.57209730E-01 -2.90284693E-01
    endloop
  endfacet
  facet normal  9.39692557E-01  3.42020273E-01 -8.63335515E-07
    outer loop
      vertex  9.39692616E-01  3.42020124E-01  0.00000000E+00
      vertex  1.28006589E+00 -5.93147635E-01 -9.80171412E-02
      vertex  1.27514088E+00 -5.79616606E-01 -1.95090294E-01
    endloop
  endfacet
  facet normal  9.39692616E-01  3.42020154E-01  1.34629516E-07
    outer loop
      vertex  9.39692616E-01  3.42020124E-01  0.00000000E+00
      vertex  1.28171277E+00 -5.97672462E-01  0.00000000E+00
      vertex  1.28006589E+00 -5.93147635E-01 -9.80171412E-02
    endloop
  endfacet
  facet normal -1.14220984E-01 -9.92485046E-01  4.38975021E-02
    outer loop
      vertex -9.39692616E-01 -3.42020124E-01  0.00000000E+00
      vertex  1.28171277E+00 -5.97672462E-01  0.00000000E+00
      vertex  1.28006589E+00 -5.93147635E-01  9.80171412E-02
    endloop
  endfacet
  facet normal -1.17164262E-01 -9.84398544E-01  1.31271005E-01
    outer loop
      vertex -9.39692616E-01 -3.42020124E-01  0.00000000E+00
      vertex  1.28006589E+00 -5.93147635E-01  9.80171412E-02
      vertex  1.27514088E+00 -5.79616606E-01  1.95090294E-01
    endloop
  endfacet
  facet normal -1.23022430E-01 -9.68303382E-01  2.17380077E-01
    outer loop
      vertex -9.39692616E-01 -3.42020124E-01  0.00000000E+00
      vertex  1.27514088E+00 -5.79616606E-01  1.95090294E-01
      vertex  1.26698554E+00 -5.57209730E-01  2.90284693E-01
    endloop
  endfacet
  facet normal -1.31739274E-01 -9.44353938E-01  3.01397473E-01
    outer loop
      vertex -9.39692616E-01 -3.42020124E-01  0.00000000E+00
      vertex  1.26698554E+00 -5.57209730E-01  2.90284693E-01
      vertex  1.25567794E+00 -5.26142597E-01  3.82683396E-01
    endloop
  endfacet
  facet normal -1.43230185E-01 -9.12782967E-01  3.82508039E-01
    outer loop
      vertex -9.39692616E-01 -3.42020124E-01  0.00000000E+00
      vertex  1.25567794E+00 -5.26142597E-01  3.82683396E-01
      vertex  1.24132740E+00 -4.86714810E-01  4.71396714E-01
    endloop
  endfacet
  facet normal -1.57385603E-01 -8.73891294E-01  4.59938884E-01
    outer loop
      vertex -9.39692616E-01 -3.42020124E-01  0.00000000E+00
      vertex  1.24132740E+00 -4.86714810E-01  4.71396714E-01
      vertex  1.22407198E+00 -4.39305693E-01  5.55570185E-01
    endloop
  endfacet
  facet normal -1.74068108E-01 -8.28056395E-01  5.32938004E-01
    outer loop
      vertex -9.39692616E-01 -3.42020124E-01  0.00000000E+00
      vertex  1.22407198E+00 -4.39305693E-01  5.55570185E-01
      vertex  1.20407772E+00 -3.84371996E-01  6.34393275E-01
    endloop
  endfacet
  facet normal -1.93117559E-01 -7.75718451E-01  6.00804865E-01
    outer loop
      vertex -9.39692616E-01 -3.42020124E-01  0.00000000E+00
      vertex  1.20407772E+00 -3.84371996E-01  6.34393275E-01
      vertex  1.18153739E+00 -3.22442919E-01  7.07106829E-01
    endloop
  endfacet
  facet normal -2.14350998E-01 -7.17380047E-01  6.62887275E-01
    outer loop
      vertex -9.39692616E-01 -3.42020124E-01  0.00000000E+00
      vertex  1.18153739E+00 -3.22442919E-01  7.07106829E-01
      vertex  1.15666795E+00 -2.54114538E-01  7.73010373E-01
    endloop
  endfacet
  facet normal -2.37562552E-01 -6.53606832E-01  7.18583405E-01
    outer loop
      vertex -9.39692616E-01 -3.42020124E-01  0.00000000E+00
      vertex  1.15666795E+00 -2.54114538E-01  7.73010373E-01
      vertex  1.12970889E+00 -1.80045068E-01  8.31469595E-01
    endloop
  endfacet
  facet normal -2.62529939E-01 -5.85009396E-01  7.67360449E-01
    outer loop
      vertex -9.39692616E-01 -3.42020124E-01  0.00000000E+00
      vertex  1.12970889E+00 -1.80045068E-01  8.31469595E-01
      vertex  1.10091984E+00 -1.00947864E-01  8.81921291E-01
    endloop
  endfacet
  facet normal -2.89012432E-01 -5.12249351E-01  8.08747411E-01
    outer loop
      vertex -9.39692616E-01 -3.42020124E-01  0.00000000E+00
      vertex  1.10091984E+00 -1.00947864E-01  8.81921291E-01
      vertex  1.07057810E+00 -1.75846238E-02  9.23879504E-01
    endloop
  endfacet
  facet normal -3.16754401E-01 -4.36029077E-01  8.42345119E-01
    outer loop
      vertex -9.39692616E-01 -3.42020124E-01  0.00000000E+00
      vertex  1.07057810E+00 -1.75846238E-02  9.23879504E-01
      vertex  1.03897583E+00  6.92417547E-02  9.56940413E-01
    endloop
  endfacet
  facet normal -3.45490038E-01 -3.57078403E-01  8.67831588E-01
    outer loop
      vertex -9.39692616E-01 -3.42020124E-01  0.00000000E+00
      vertex  1.03897583E+00  6.92417547E-02  9.56940413E-01
      vertex  1.00641751E+00  1.58695236E-01  9.80785310E-01
    endloop
  endfacet
  facet normal -3.74940664E-01 -2.76163399E-01  8.84959459E-01
    outer loop
      vertex -9.39692616E-01 -3.42020124E-01  0.00000000E+00
      vertex  1.00641751E+00  1.58695236E-01  9.80785310E-01
      vertex  9.73216355E-01  2.49914140E-01  9.95184720E-01
    endloop
  endfacet
  facet normal -4.04824317E-01 -1.94059238E-01  8.93564939E-01
    outer loop
      vertex -9.39692616E-01 -3.42020124E-01  0.00000000E+00
      vertex  9.73216355E-01  2.49914140E-01  9.95184720E-01
      vertex  9.39692616E-01  3.42020124E-01  1.00000000E+00
    endloop
  endfacet
  facet normal -4.34852213E-01 -1.11558288E-01  8.93564939E-01
    outer loop
      vertex -9.39692616E-01 -3.42020124E-01  0.00000000E+00
      vertex  9.39692616E-01  3.42020124E-01  1.00000000E+00
      vertex  9.06168699E-01  4.34126079E-01  9.95184720E-01
    endloop
  endfacet
  facet normal -4.64735657E-01 -2.94538438E-02  8.84959459E-01
    outer loop
      vertex -9.39692616E-01 -3.42020124E-01  0.00000000E+00
      vertex  9.06168699E-01  4.34126079E-01  9.95184720E-01
      vertex  8.72967780E-01  5.25345027E-01  9.80785310E-01
    endloop
  endfacet
  facet normal -4.94186550E-01  5.14613912E-02  8.67831409E-01
    outer loop
      vertex -9.39692616E-01 -3.42020124E-01  0.00000000E+00
      vertex  8.72967780E-01  5.25345027E-01  9.80785310E-01
      vertex  8.40409458E-01  6.14798546E-01  9.56940413E-01
    endloop
  endfacet
  facet normal -5.22922039E-01  1.30411536E-01  8.42345178E-01
    outer loop
      vertex -9.39692616E-01 -3.42020124E-01  0.00000000E+00
      vertex  8.40409458E-01  6.14798546E-01  9.56940413E-01
      vertex  8.08807135E-01  7.01624870E-01  9.23879504E-01
    endloop
  endfacet
  facet normal -5.50663948E-01  2.06632450E-01  8.08747351E-01
    outer loop
      vertex -9.39692616E-01 -3.42020124E-01  0.00000000E+00
      vertex  8.08807135E-01  7.01624870E-01  9.23879504E-01
      vertex  7.78465509E-01  7.84988165E-01  8.81921291E-01
    endloop
  endfacet
  facet normal -5.77146351E-01  2.79392362E-01  7.67360389E-01
    outer loop
      vertex -9.39692616E-01 -3.42020124E-01  0.00000000E+00
      vertex  7.78465509E-01  7.84988165E-01  8.81921291E-01
      vertex  7.49676466E-01  8.64085376E-01  8.31469595E-01
    endloop
  endfacet
  facet normal -6.02113783E-01  3.47989559E-01  7.18583465E-01
    outer loop
      vertex -9.39692616E-01 -3.42020124E-01  0.00000000E+00
      vertex  7.49676466E-01  8.64085376E-01  8.31469595E-01
      vertex  7.22717404E-01  9.38154876E-01  7.73010373E-01
    endloop
  endfacet
  facet normal -6.25325143E-01  4.11761880E-01  6.62888050E-01
    outer loop
      vertex -9.39692616E-01 -3.42020124E-01  0.00000000E+00
      vertex  7.22717404E-01  9.38154876E-01  7.73010373E-01
      vertex  6.97847784E-01  1.00648320E+00  7.07106829E-01
    endloop
  endfacet
  facet normal -6.46559298E-01  4.70102400E-01  6.00803435E-01
    outer loop
      vertex -9.39692616E-01 -3.42020124E-01  0.00000000E+00
      vertex  6.97847784E-01  1.00648320E+00  7.07106829E-01
      vertex  6.75307512E-01  1.06841230E+00  6.34393275E-01
    endloop
  endfacet
  facet normal -6.65608346E-01  5.22439063E-01  5.32938063E-01
    outer loop
      vertex -9.39692616E-01 -3.42020124E-01  0.00000000E+00
      vertex  6.75307512E-01  1.06841230E+00  6.34393275E-01
      vertex  6.55313253E-01  1.12334597E+00  5.55570185E-01
    endloop
  endfacet
  facet normal -6.82291210E-01  5.68274617E-01  4.59937692E-01
    outer loop
      vertex -9.39692616E-01 -3.42020124E-01  0.00000000E+00
      vertex  6.55313253E-01  1.12334597E+00  5.55570185E-01
      vertex  6.38057768E-01  1.17075503E+00  4.71396714E-01
    endloop
  endfacet
  facet normal -6.96445942E-01  6.07164919E-01  3.82509828E-01
    outer loop
      vertex -9.39692616E-01 -3.42020124E-01  0.00000000E+00
      vertex  6.38057768E-01  1.17075503E+00  4.71396714E-01
      vertex  6.23707235E-01  1.21018291E+00  3.82683396E-01
    endloop
  endfacet
  facet normal -7.07937241E-01  6.38737082E-01  3.01396370E-01
    outer loop
      vertex -9.39692616E-01 -3.42020124E-01  0.00000000E+00
      vertex  6.23707235E-01  1.21018291E+00  3.82683396E-01
      vertex  6.12399757E-01  1.24124992E+00  2.90284693E-01
    endloop
  endfacet
  facet normal -7.16654122E-01  6.62686229E-01  2.17379466E-01
    outer loop
      vertex -9.39692616E-01 -3.42020124E-01  0.00000000E+00
      vertex  6.12399757E-01  1.24124992E+00  2.90284693E-01
      vertex  6.04244292E-01  1.26365685E+00  1.95090294E-01
    endloop
  endfacet
  facet normal -7.22512126E-01  6.78781152E-01  1.31272152E-01
    outer loop
      vertex -9.39692616E-01 -3.42020124E-01  0.00000000E+00
      vertex  6.04244292E-01  1.26365685E+00  1.95090294E-01
      vertex  5.99319398E-01  1.27718794E+00  9.80171412E-02
    endloop
  endfacet
  facet normal -7.25455463E-01  6.86867833E-01  4.38969024E-02
    outer loop
      vertex -9.39692616E-01 -3.42020124E-01  0.00000000E+00
      vertex  5.99319398E-01  1.27718794E+00  9.80171412E-02
      vertex  5.97672462E-01  1.28171277E+00  1.22460596E-16
    endloop
  endfacet
  facet normal -7.25455463E-01  6.86867833E-01 -4.38969284E-02
    outer loop
      vertex -9.39692616E-01 -3.42020124E-01  0.00000000E+00
      vertex  5.97672462E-01  1.28171277E+00  1.22460596E-16
      vertex  5.99319398E-01  1.27718794E+00 -9.80171412E-02
    endloop
  endfacet
  facet normal -7.22512066E-01  6.78781152E-01 -1.31272405E-01
    outer loop
      vertex -9.39692616E-01 -3.42020124E-01  0.00000000E+00
      vertex  5.99319398E-01  1.27718794E+00 -9.80171412E-02
      vertex  6.04244292E-01  1.26365685E+00 -1.95090294E-01
    endloop
  endfacet
  facet normal -7.16654062E-01  6.62686229E-01 -2.17379615E-01
    outer loop
      vertex -9.39692616E-01 -3.42020124E-01  0.00000000E+00
      vertex  6.04244292E-01  1.26365685E+00 -1.95090294E-01
      vertex  6.12399757E-01  1.24124992E+00 -2.90284693E-01
    endloop
  endfacet
  facet normal -7.07937360E-01  6.38737142E-01 -3.01396042E-01
    outer loop
      vertex -9.39692616E-01 -3.42020124E-01  0.00000000E+00
      vertex  6.12399757E-01  1.24124992E+00 -2.90284693E-01
      vertex  6.23707235E-01  1.21018291E+00 -3.82683396E-01
    endloop
  endfacet
  facet normal -6.96446061E-01  6.07165217E-01 -3.82509172E-01
    outer loop
      vertex -9.39692616E-01 -3.42020124E-01  0.00000000E+00
      vertex  6.23707235E-01  1.21018291E+00 -3.82683396E-01
      vertex  6.38057768E-01  1.17075503E+00 -4.71396714E-01
    endloop
  endfacet
  facet normal -6.82291150E-01  5.68274677E-01 -4.59937692E-01
    outer loop
      vertex -9.39692616E-01 -3.42020124E-01  0.00000000E+00
      vertex  6.38057768E-01  1.17075503E+00 -4.71396714E-01
      vertex  6.55313253E-01  1.12334597E+00 -5.55570185E-01
    endloop
  endfacet
  facet normal -6.65608346E-01  5.22439003E-01 -5.32938063E-01
    outer loop
      vertex -9.39692616E-01 -3.42020124E-01  0.00000000E+00
      vertex  6.55313253E-01  1.12334597E+00 -5.55570185E-01
      vertex  6.75307512E-01  1.06841230E+00 -6.34393275E-01
    endloop
  endfacet
  facet normal -6.46559179E-01  4.70102012E-01 -6.00803852E-01
    outer loop
      vertex -9.39692616E-01 -3.42020124E-01  0.00000000E+00
      vertex  6.75307512E-01  1.06841230E+00 -6.34393275E-01
      vertex  6.97847784E-01  1.00648320E+00 -7.07106829E-01
    endloop
  endfacet
  facet normal -6.25325203E-01  4.11762297E-01 -6.62887752E-01
    outer loop
      vertex -9.39692616E-01 -3.42020124E-01  0.00000000E+00
      vertex  6.97847784E-01  1.00648320E+00 -7.07106829E-01
      vertex  7.22717404E-01  9.38154876E-01 -7.73010373E-01
    endloop
  endfacet
  facet normal -6.02113783E-01  3.47989440E-01 -7.18583584E-01
    outer loop
      vertex -9.39692616E-01 -3.42020124E-01  0.00000000E+00
      vertex  7.22717404E-01  9.38154876E-01 -7.73010373E-01
      vertex  7.49676466E-01  8.64085376E-01 -8.31469595E-01
    endloop
  endfacet
  facet normal -5.77146471E-01  2.79392302E-01 -7.67360330E-01
    outer loop
      vertex -9.39692616E-01 -3.42020124E-01  0.00000000E+00
      vertex  7.49676466E-01  8.64085376E-01 -8.31469595E-01
      vertex  7.78465509E-01  7.84988165E-01 -8.81921291E-01
    endloop
  endfacet
  facet normal -5.50663888E-01  2.06632376E-01 -8.08747411E-01
    outer loop
      vertex -9.39692616E-01 -3.42020124E-01  0.00000000E+00
      vertex  7.78465509E-01  7.84988165E-01 -8.81921291E-01
      vertex  8.08807135E-01  7.01624870E-01 -9.23879504E-01
    endloop
  endfacet
  facet normal -5.22921979E-01  1.30411640E-01 -8.42345178E-01
    outer loop
      vertex -9.39692616E-01 -3.42020124E-01  0.00000000E+00
      vertex  8.08807135E-01  7.01624870E-01 -9.23879504E-01
      vertex  8.40409458E-01  6.14798546E-01 -9.56940413E-01
    endloop
  endfacet
  facet normal -4.94186282E-01  5.14614135E-02 -8.67831588E-01
    outer loop
      vertex -9.39692616E-01 -3.42020124E-01  0.00000000E+00
      vertex  8.40409458E-01  6.14798546E-01 -9.56940413E-01
      vertex  8.72967780E-01  5.25345027E-01 -9.80785310E-01
    endloop
  endfacet
  facet normal -4.64735627E-01 -2.94537991E-02 -8.84959459E-01
    outer loop
      vertex -9.39692616E-01 -3.42020124E-01  0.00000000E+00
      vertex  8.72967780E-01  5.25345027E-01 -9.80785310E-01
      vertex  9.06168699E-01  4.34126079E-01 -9.95184720E-01
    endloop
  endfacet
  facet normal -4.34852123E-01 -1.11558273E-01 -8.93564999E-01
    outer loop
      vertex -9.39692616E-01 -3.42020124E-01  0.00000000E+00
      vertex  9.06168699E-01  4.34126079E-01 -9.95184720E-01
      vertex  9.39692616E-01  3.42020124E-01 -1.00000000E+00
    endloop
  endfacet
  facet normal -4.04824167E-01 -1.94059193E-01 -8.93564999E-01
    outer loop
      vertex -9.39692616E-01 -3.42020124E-01  0.00000000E+00
      vertex  9.39692616E-01  3.42020124E-01 -1.00000000E+00
      vertex  9.73216355E-01  2.49914140E-01 -9.95184720E-01
    endloop
  endfacet
  facet normal -3.74940723E-01 -2.76163697E-01 -8.84959340E-01
    outer loop
      vertex -9.39692616E-01 -3.42020124E-01  0.00000000E+00
      vertex  9.73216355E-01  2.49914140E-01 -9.95184720E-01
      vertex  1.00641751E+00  1.58695236E-01 -9.80785310E-01
    endloop
  endfacet
  facet normal -3.45490009E-01 -3.57078463E-01 -8.67831588E-01
    outer loop
      vertex -9.39692616E-01 -3.42020124E-01  0.00000000E+00
      vertex  1.00641751E+00  1.58695236E-01 -9.80785310E-01
      vertex  1.03897583E+00  6.92417547E-02 -9.56940413E-01
    endloop
  endfacet
  facet normal -3.16754490E-01 -4.36028928E-01 -8.42345178E-01
    outer loop
      vertex -9.39692616E-01 -3.42020124E-01  0.00000000E+00
      vertex  1.03897583E+00  6.92417547E-02 -9.56940413E-01
      vertex  1.07057810E+00 -1.75846238E-02 -9.23879504E-01
    endloop
  endfacet
  facet normal -2.89012462E-01 -5.12249351E-01 -8.08747411E-01
    outer loop
      vertex -9.39692616E-01 -3.42020124E-01  0.00000000E+00
      vertex  1.07057810E+00 -1.75846238E-02 -9.23879504E-01
      vertex  1.10091984E+00 -1.00947864E-01 -8.81921291E-01
    endloop
  endfacet
  facet normal -2.62529969E-01 -5.85009575E-01 -7.67360270E-01
    outer loop
      vertex -9.39692616E-01 -3.42020124E-01  0.00000000E+00
      vertex  1.10091984E+00 -1.00947864E-01 -8.81921291E-01
      vertex  1.12970889E+00 -1.80045068E-01 -8.31469595E-01
    endloop
  endfacet
  facet normal -2.37562522E-01 -6.53606713E-01 -7.18583524E-01
    outer loop
      vertex -9.39692616E-01 -3.42020124E-01  0.00000000E+00
      vertex  1.12970889E+00 -1.80045068E-01 -8.31469595E-01
      vertex  1.15666795E+00 -2.54114538E-01 -7.73010373E-01
    endloop
  endfacet
  facet normal -2.14351073E-01 -7.17379868E-01 -6.62887454E-01
    outer loop
      vertex -9.39692616E-01 -3.42020124E-01  0.00000000E+00
      vertex  1.15666795E+00 -2.54114538E-01 -7.73010373E-01
      vertex  1.18153739E+00 -3.22442919E-01 -7.07106829E-01
    endloop
  endfacet
  facet normal -1.93117574E-01 -7.75718451E-01 -6.00804806E-01
    outer loop
      vertex -9.39692616E-01 -3.42020124E-01  0.00000000E+00
      vertex  1.18153739E+00 -3.22442919E-01 -7.07106829E-01
      vertex  1.20407772E+00 -3.84371996E-01 -6.34393275E-01
    endloop
  endfacet
  facet normal -1.74068108E-01 -8.28056395E-01 -5.32938004E-01
    outer loop
      vertex -9.39692616E-01 -3.42020124E-01  0.00000000E+00
      vertex  1.20407772E+00 -3.84371996E-01 -6.34393275E-01
      vertex  1.22407198E+00 -4.39305693E-01 -5.55570185E-01
    endloop
  endfacet
  facet normal -1.57385543E-01 -8.73891354E-01 -4.59938735E-01
    outer loop
      vertex -9.39692616E-01 -3.42020124E-01  0.00000000E+00
      vertex  1.22407198E+00 -4.39305693E-01 -5.55570185E-01
      vertex  1.24132740E+00 -4.86714810E-01 -4.71396714E-01
    endloop
  endfacet
  facet normal -1.43230185E-01 -9.12782967E-01 -3.82508069E-01
    outer loop
      vertex -9.39692616E-01 -3.42020124E-01  0.00000000E+00
      vertex  1.24132740E+00 -4.86714810E-01 -4.71396714E-01
      vertex  1.25567794E+00 -5.26142597E-01 -3.82683396E-01
    endloop
  endfacet
  facet normal -1.31739274E-01 -9.44353938E-01 -3.01397413E-01
    outer loop
      vertex -9.39692616E-01 -3.42020124E-01  0.00000000E+00
      vertex  1.25567794E+00 -5.26142597E-01 -3.82683396E-01
      vertex  1.26698554E+00 -5.57209730E-01 -2.90284693E-01
    endloop
  endfacet
  facet normal -1.23022452E-01 -9.68303323E-01 -2.17380077E-01
    outer loop
      vertex -9.39692616E-01 -3.42020124E-01  0.00000000E+00
      vertex  1.26698554E+00 -5.57209730E-01 -2.90284693E-01
      vertex  1.27514088E+00 -5.79616606E-01 -1.95090294E-01
    endloop
  endfacet
  facet normal -1.17164262E-01 -9.84398544E-01 -1.31271020E-01
    outer loop
      vertex -9.39692616E-01 -3.42020124E-01  0.00000000E+00
      vertex  1.27514088E+00 -5.79616606E-01 -1.95090294E-01
      vertex  1.28006589E+00 -5.93147635E-01 -9.80171412E-02
    endloop
  endfacet
  facet normal -1.14220984E-01 -9.92485046E-01 -4.38974947E-02
    outer loop
      vertex -9.39692616E-01 -3.42020124E-01  0.00000000E+00
      vertex  1.28006589E+00 -5.93147635E-01 -9.80171412E-02
      vertex  1.28171277E+00 -5.97672462E-01  0.00000000E+00
    endloop
  endfacet
endsolid  Processed by ADMesh version 0.95
