solid  Processed by ADMesh version 0.95
  facet normal  9.84807730E-01  1.73648238E-01 -2.66180820E-07
    outer loop
      vertex  9.84807730E-01  1.73648179E-01  0.00000000E+00
      vertex  1.15761983E+00 -8.06417465E-01  9.80171412E-02
      vertex  1.15845597E+00 -8.11159551E-01  0.00000000E+00
    endloop
  endfacet
  facet normal  9.84807730E-01  1.73648357E-01  9.90046487E-07
    outer loop
      vertex  9.84807730E-01  1.73648179E-01  0.00000000E+00
      vertex  1.15511930E+00 -7.92236805E-01  1.95090294E-01
      vertex  1.15761983E+00 -8.06417465E-01  9.80171412E-02
    endloop
  endfacet
  facet normal  9.84807730E-01  1.73648149E-01 -5.41071898E-08
    outer loop
      vertex  9.84807730E-01  1.73648179E-01  0.00000000E+00
      vertex  1.15097868E+00 -7.68754184E-01  2.90284693E-01
      vertex  1.15511930E+00 -7.92236805E-01  1.95090294E-01
    endloop
  endfacet
  facet normal  9.84807730E-01  1.73648193E-01  2.83802876E-07
    outer loop
      vertex  9.84807730E-01  1.73648179E-01  0.00000000E+00
      vertex  1.14523768E+00 -7.36195505E-01  3.82683396E-01
      vertex  1.15097868E+00 -7.68754184E-01  2.90284693E-01
    endloop
  endfacet
  facet normal  9.84807789E-01  1.73648059E-01 -1.16676254E-07
    outer loop
      vertex  9.84807730E-01  1.73648179E-01  0.00000000E+00
      vertex  1.13795173E+00 -6.94874763E-01  4.71396714E-01
      vertex  1.14523768E+00 -7.36195505E-01  3.82683396E-01
    endloop
  endfacet
  facet normal  9.84807789E-01  1.73648000E-01 -2.89710329E-07
    outer loop
      vertex  9.84807730E-01  1.73648179E-01  0.00000000E+00
      vertex  1.12919092E+00 -6.45189524E-01  5.55570185E-01
      vertex  1.13795173E+00 -6.94874763E-01  4.71396714E-01
    endloop
  endfacet
  facet normal  9.84807730E-01  1.73648387E-01  3.64698053E-07
    outer loop
      vertex  9.84807730E-01  1.73648179E-01  0.00000000E+00
      vertex  1.11903954E+00 -5.87618411E-01  6.34393275E-01
      vertex  1.12919092E+00 -6.45189524E-01  5.55570185E-01
    endloop
  endfacet
  facet normal  9.84807849E-01  1.73647806E-01 -4.19169538E-07
    outer loop
      vertex  9.84807730E-01  1.73648179E-01  0.00000000E+00
      vertex  1.10759556E+00 -5.22716105E-01  7.07106829E-01
      vertex  1.11903954E+00 -5.87618411E-01  6.34393275E-01
    endloop
  endfacet
  facet normal  9.84807789E-01  1.73647836E-01 -4.08200776E-07
    outer loop
      vertex  9.84807730E-01  1.73648179E-01  0.00000000E+00
      vertex  1.09496903E+00 -4.51107234E-01  7.73010373E-01
      vertex  1.10759556E+00 -5.22716105E-01  7.07106829E-01
    endloop
  endfacet
  facet normal  9.84807730E-01  1.73648372E-01  6.82523691E-08
    outer loop
      vertex  9.84807730E-01  1.73648179E-01  0.00000000E+00
      vertex  1.08128154E+00 -3.73481661E-01  8.31469595E-01
      vertex  1.09496903E+00 -4.51107234E-01  7.73010373E-01
    endloop
  endfacet
  facet normal  9.84807730E-01  1.73648402E-01  1.28055973E-07
    outer loop
      vertex  9.84807730E-01  1.73648179E-01  0.00000000E+00
      vertex  1.06666493E+00 -2.90586948E-01  8.81921291E-01
      vertex  1.08128154E+00 -3.73481661E-01  8.31469595E-01
    endloop
  endfacet
  facet normal  9.84807670E-01  1.73648492E-01  1.34132250E-07
    outer loop
      vertex  9.84807730E-01  1.73648179E-01  0.00000000E+00
      vertex  1.05125999E+00 -2.03221396E-01  9.23879504E-01
      vertex  1.06666493E+00 -2.90586948E-01  8.81921291E-01
    endloop
  endfacet
  facet normal  9.84807789E-01  1.73648074E-01 -4.28286775E-08
    outer loop
      vertex  9.84807730E-01  1.73648179E-01  0.00000000E+00
      vertex  1.03521514E+00 -1.12226442E-01  9.56940413E-01
      vertex  1.05125999E+00 -2.03221396E-01  9.23879504E-01
    endloop
  endfacet
  facet normal  9.84807849E-01  1.73647642E-01 -1.62969400E-07
    outer loop
      vertex  9.84807730E-01  1.73648179E-01  0.00000000E+00
      vertex  1.01868486E+00 -1.84782557E-02  9.80785310E-01
      vertex  1.03521514E+00 -1.12226442E-01  9.56940413E-01
    endloop
  endfacet
  facet normal  9.84807611E-01  1.73649132E-01  1.28172090E-07
    outer loop
      vertex  9.84807730E-01  1.73648179E-01  0.00000000E+00
      vertex  1.00182819E+00  7.71201327E-02  9.95184720E-01
      vertex  1.01868486E+00 -1.84782557E-02  9.80785310E-01
    endloop
  endfacet
  facet normal  9.84807789E-01  1.73647836E-01 -0.00000000E+00
    outer loop
      vertex  9.84807730E-01  1.73648179E-01  0.00000000E+00
      vertex  9.84807730E-01  1.73648179E-01  1.00000000E+00
      vertex  1.00182819E+00  7.71201327E-02  9.95184720E-01
    endloop
  endfacet
  facet normal  9.84807730E-01  1.73648462E-01 -0.00000000E+00
    outer loop
      vertex  9.84807730E-01  1.73648179E-01  0.00000000E+00
      vertex  9.67787206E-01  2.70176202E-01  9.95184720E-01
      vertex  9.84807730E-01  1.73648179E-01  1.00000000E+00
    endloop
  endfacet
  facet normal  9.84807789E-01  1.73647925E-01  5.34984608E-08
    outer loop
      vertex  9.84807730E-01  1.73648179E-01  0.00000000E+00
      vertex  9.50930655E-01  3.65774602E-01  9.80785310E-01
      vertex  9.67787206E-01  2.70176202E-01  9.95184720E-01
    endloop
  endfacet
  facet normal  9.84807849E-01  1.73647553E-01  1.25139749E-07
    outer loop
      vertex  9.84807730E-01  1.73648179E-01  0.00000000E+00
      vertex  9.34400380E-01  4.59522814E-01  9.56940413E-01
      vertex  9.50930655E-01  3.65774602E-01  9.80785310E-01
    endloop
  endfacet
  facet normal  9.84807670E-01  1.73648685E-01 -2.19256890E-07
    outer loop
      vertex  9.84807730E-01  1.73648179E-01  0.00000000E+00
      vertex  9.18355465E-01  5.50517738E-01  9.23879504E-01
      vertex  9.34400380E-01  4.59522814E-01  9.56940413E-01
    endloop
  endfacet
  facet normal  9.84807789E-01  1.73647925E-01  9.67185585E-08
    outer loop
      vertex  9.84807730E-01  1.73648179E-01  0.00000000E+00
      vertex  9.02950585E-01  6.37883306E-01  8.81921291E-01
      vertex  9.18355465E-01  5.50517738E-01  9.23879504E-01
    endloop
  endfacet
  facet normal  9.84807789E-01  1.73648000E-01  4.85991833E-08
    outer loop
      vertex  9.84807730E-01  1.73648179E-01  0.00000000E+00
      vertex  8.88334036E-01  7.20777988E-01  8.31469595E-01
      vertex  9.02950585E-01  6.37883306E-01  8.81921291E-01
    endloop
  endfacet
  facet normal  9.84807730E-01  1.73648164E-01 -4.96005050E-08
    outer loop
      vertex  9.84807730E-01  1.73648179E-01  0.00000000E+00
      vertex  8.74646544E-01  7.98403621E-01  7.73010373E-01
      vertex  8.88334036E-01  7.20777988E-01  8.31469595E-01
    endloop
  endfacet
  facet normal  9.84807670E-01  1.73648760E-01 -5.61797322E-07
    outer loop
      vertex  9.84807730E-01  1.73648179E-01  0.00000000E+00
      vertex  8.62019897E-01  8.70012462E-01  7.07106829E-01
      vertex  8.74646544E-01  7.98403621E-01  7.73010373E-01
    endloop
  endfacet
  facet normal  9.84807849E-01  1.73647776E-01  4.41976340E-07
    outer loop
      vertex  9.84807730E-01  1.73648179E-01  0.00000000E+00
      vertex  8.50575924E-01  9.34914768E-01  6.34393275E-01
      vertex  8.62019897E-01  8.70012462E-01  7.07106829E-01
    endloop
  endfacet
  facet normal  9.84807730E-01  1.73648447E-01 -3.89989651E-07
    outer loop
      vertex  9.84807730E-01  1.73648179E-01  0.00000000E+00
      vertex  8.40424538E-01  9.92485881E-01  5.55570185E-01
      vertex  8.50575924E-01  9.34914768E-01  6.34393275E-01
    endloop
  endfacet
  facet normal  9.84807789E-01  1.73648015E-01  3.41552834E-07
    outer loop
      vertex  9.84807730E-01  1.73648179E-01  0.00000000E+00
      vertex  8.31663728E-01  1.04217112E+00  4.71396714E-01
      vertex  8.40424538E-01  9.92485881E-01  5.55570185E-01
    endloop
  endfacet
  facet normal  9.84807789E-01  1.73648059E-01  1.96910392E-07
    outer loop
      vertex  9.84807730E-01  1.73648179E-01  0.00000000E+00
      vertex  8.24377775E-01  1.08349192E+00  3.82683396E-01
      vertex  8.31663728E-01  1.04217112E+00  4.71396714E-01
    endloop
  endfacet
  facet normal  9.84807789E-01  1.73648074E-01  8.05556866E-08
    outer loop
      vertex  9.84807730E-01  1.73648179E-01  0.00000000E+00
      vertex  8.18636835E-01  1.11605048E+00  2.90284693E-01
      vertex  8.24377775E-01  1.08349192E+00  3.82683396E-01
    endloop
  endfacet
  facet normal  9.84807730E-01  1.73648253E-01 -4.51617467E-07
    outer loop
      vertex  9.84807730E-01  1.73648179E-01  0.00000000E+00
      vertex  8.14496160E-01  1.13953316E+00  1.95090294E-01
      vertex  8.18636835E-01  1.11605048E+00  2.90284693E-01
    endloop
  endfacet
  facet normal  9.84807789E-01  1.73648119E-01  1.44448194E-07
    outer loop
      vertex  9.84807730E-01  1.73648179E-01  0.00000000E+00
      vertex  8.11995745E-01  1.15371382E+00  9.80171412E-02
      vertex  8.14496160E-01  1.13953316E+00  1.95090294E-01
    endloop
  endfacet
  facet normal  9.84807730E-01  1.73648164E-01 -2.05038646E-07
    outer loop
      vertex  9.84807730E-01  1.73648179E-01  0.00000000E+00
      vertex  8.11159551E-01  1.15845597E+00  1.22460596E-16
      vertex  8.11995745E-01  1.15371382E+00  9.80171412E-02
    endloop
  endfacet
  facet normal  9.84807730E-01  1.73648164E-01  2.02019550E-07
    outer loop
      vertex  9.84807730E-01  1.73648179E-01  0.00000000E+00
      vertex  8.11995745E-01  1.15371382E+00 -9.80171412E-02
      vertex  8.11159551E-01  1.15845597E+00  1.22460596E-16
    endloop
  endfacet
  facet normal  9.84807789E-01  1.73648134E-01 -1.84671464E-07
    outer loop
      vertex  9.84807730E-01  1.73648179E-01  0.00000000E+00
      vertex  8.14496160E-01  1.13953316E+00 -1.95090294E-01
      vertex  8.11995745E-01  1.15371382E+00 -9.80171412E-02
    endloop
  endfacet
  facet normal  9.84807730E-01  1.73648238E-01  4.50429638E-07
    outer loop
      vertex  9.84807730E-01  1.73648179E-01  0.00000000E+00
      vertex  8.18636835E-01  1.11605048E+00 -2.90284693E-01
      vertex  8.14496160E-01  1.13953316E+00 -1.95090294E-01
    endloop
  endfacet
  facet normal  9.84807789E-01  1.73648089E-01 -1.68427817E-07
    outer loop
      vertex  9.84807730E-01  1.73648179E-01  0.00000000E+00
      vertex  8.24377775E-01  1.08349192E+00 -3.82683396E-01
      vertex  8.18636835E-01  1.11605048E+00 -2.90284693E-01
    endloop
  endfacet
  facet normal  9.84807789E-01  1.73648000E-01 -1.16676219E-07
    outer loop
      vertex  9.84807730E-01  1.73648179E-01  0.00000000E+00
      vertex  8.31663728E-01  1.04217112E+00 -4.71396714E-01
      vertex  8.24377775E-01  1.08349192E+00 -3.82683396E-01
    endloop
  endfacet
  facet normal  9.84807789E-01  1.73648000E-01 -2.89710329E-07
    outer loop
      vertex  9.84807730E-01  1.73648179E-01  0.00000000E+00
      vertex  8.40424538E-01  9.92485881E-01 -5.55570185E-01
      vertex  8.31663728E-01  1.04217112E+00 -4.71396714E-01
    endloop
  endfacet
  facet normal  9.84807730E-01  1.73648387E-01  3.64698053E-07
    outer loop
      vertex  9.84807730E-01  1.73648179E-01  0.00000000E+00
      vertex  8.50575924E-01  9.34914768E-01 -6.34393275E-01
      vertex  8.40424538E-01  9.92485881E-01 -5.55570185E-01
    endloop
  endfacet
  facet normal  9.84807849E-01  1.73647806E-01 -4.19169538E-07
    outer loop
      vertex  9.84807730E-01  1.73648179E-01  0.00000000E+00
      vertex  8.62019897E-01  8.70012462E-01 -7.07106829E-01
      vertex  8.50575924E-01  9.34914768E-01 -6.34393275E-01
    endloop
  endfacet
  facet normal  9.84807670E-01  1.73648715E-01  5.02610817E-07
    outer loop
      vertex  9.84807730E-01  1.73648179E-01  0.00000000E+00
      vertex  8.74646544E-01  7.98403621E-01 -7.73010373E-01
      vertex  8.62019897E-01  8.70012462E-01 -7.07106829E-01
    endloop
  endfacet
  facet normal  9.84807730E-01  1.73648149E-01  1.99561399E-08
    outer loop
      vertex  9.84807730E-01  1.73648179E-01  0.00000000E+00
      vertex  8.88334036E-01  7.20777988E-01 -8.31469595E-01
      vertex  8.74646544E-01  7.98403621E-01 -7.73010373E-01
    endloop
  endfacet
  facet normal  9.84807789E-01  1.73647955E-01 -5.64855185E-08
    outer loop
      vertex  9.84807730E-01  1.73648179E-01  0.00000000E+00
      vertex  9.02950585E-01  6.37883306E-01 -8.81921291E-01
      vertex  8.88334036E-01  7.20777988E-01 -8.31469595E-01
    endloop
  endfacet
  facet normal  9.84807789E-01  1.73647910E-01 -9.50437951E-08
    outer loop
      vertex  9.84807730E-01  1.73648179E-01  0.00000000E+00
      vertex  9.18355465E-01  5.50517738E-01 -9.23879504E-01
      vertex  9.02950585E-01  6.37883306E-01 -8.81921291E-01
    endloop
  endfacet
  facet normal  9.84807670E-01  1.73648655E-01  2.24418770E-07
    outer loop
      vertex  9.84807730E-01  1.73648179E-01  0.00000000E+00
      vertex  9.34400380E-01  4.59522814E-01 -9.56940413E-01
      vertex  9.18355465E-01  5.50517738E-01 -9.23879504E-01
    endloop
  endfacet
  facet normal  9.84807849E-01  1.73647568E-01 -1.25937788E-07
    outer loop
      vertex  9.84807730E-01  1.73648179E-01  0.00000000E+00
      vertex  9.50930655E-01  3.65774602E-01 -9.80785310E-01
      vertex  9.34400380E-01  4.59522814E-01 -9.56940413E-01
    endloop
  endfacet
  facet normal  9.84807789E-01  1.73647940E-01 -5.46473480E-08
    outer loop
      vertex  9.84807730E-01  1.73648179E-01  0.00000000E+00
      vertex  9.67787206E-01  2.70176202E-01 -9.95184720E-01
      vertex  9.50930655E-01  3.65774602E-01 -9.80785310E-01
    endloop
  endfacet
  facet normal  9.84807730E-01  1.73648462E-01  0.00000000E+00
    outer loop
      vertex  9.84807730E-01  1.73648179E-01  0.00000000E+00
      vertex  9.84807730E-01  1.73648179E-01 -1.00000000E+00
      vertex  9.67787206E-01  2.70176202E-01 -9.95184720E-01
    endloop
  endfacet
  facet normal  9.84807789E-01  1.73647836E-01  0.00000000E+00
    outer loop
      vertex  9.84807730E-01  1.73648179E-01  0.00000000E+00
      vertex  1.00182819E+00  7.71201327E-02 -9.95184720E-01
      vertex  9.84807730E-01  1.73648179E-01 -1.00000000E+00
    endloop
  endfacet
  facet normal  9.84807611E-01  1.73649088E-01 -1.27258332E-07
    outer loop
      vertex  9.84807730E-01  1.73648179E-01  0.00000000E+00
      vertex  1.01868486E+00 -1.84782557E-02 -9.80785310E-01
      vertex  1.00182819E+00  7.71201327E-02 -9.95184720E-01
    endloop
  endfacet
  facet normal  9.84807849E-01  1.73647627E-01  1.65159790E-07
    outer loop
      vertex  9.84807730E-01  1.73648179E-01  0.00000000E+00
      vertex  1.03521514E+00 -1.12226442E-01 -9.56940413E-01
      vertex  1.01868486E+00 -1.84782557E-02 -9.80785310E-01
    endloop
  endfacet
  facet normal  9.84807789E-01  1.73648074E-01  2.89224449E-08
    outer loop
      vertex  9.84807730E-01  1.73648179E-01  0.00000000E+00
      vertex  1.05125999E+00 -2.03221396E-01 -9.23879504E-01
      vertex  1.03521514E+00 -1.12226442E-01 -9.56940413E-01
    endloop
  endfacet
  facet normal  9.84807730E-01  1.73648462E-01 -1.31320576E-07
    outer loop
      vertex  9.84807730E-01  1.73648179E-01  0.00000000E+00
      vertex  1.06666493E+00 -2.90586948E-01 -8.81921291E-01
      vertex  1.05125999E+00 -2.03221396E-01 -9.23879504E-01
    endloop
  endfacet
  facet normal  9.84807730E-01  1.73648462E-01 -1.01002328E-07
    outer loop
      vertex  9.84807730E-01  1.73648179E-01  0.00000000E+00
      vertex  1.08128154E+00 -3.73481661E-01 -8.31469595E-01
      vertex  1.06666493E+00 -2.90586948E-01 -8.81921291E-01
    endloop
  endfacet
  facet normal  9.84807730E-01  1.73648372E-01 -7.05576113E-08
    outer loop
      vertex  9.84807730E-01  1.73648179E-01  0.00000000E+00
      vertex  1.09496903E+00 -4.51107234E-01 -7.73010373E-01
      vertex  1.08128154E+00 -3.73481661E-01 -8.31469595E-01
    endloop
  endfacet
  facet normal  9.84807849E-01  1.73647791E-01  3.61140309E-07
    outer loop
      vertex  9.84807730E-01  1.73648179E-01  0.00000000E+00
      vertex  1.10759556E+00 -5.22716105E-01 -7.07106829E-01
      vertex  1.09496903E+00 -4.51107234E-01 -7.73010373E-01
    endloop
  endfacet
  facet normal  9.84807849E-01  1.73647776E-01  4.41976340E-07
    outer loop
      vertex  9.84807730E-01  1.73648179E-01  0.00000000E+00
      vertex  1.11903954E+00 -5.87618411E-01 -6.34393275E-01
      vertex  1.10759556E+00 -5.22716105E-01 -7.07106829E-01
    endloop
  endfacet
  facet normal  9.84807730E-01  1.73648447E-01 -3.89989651E-07
    outer loop
      vertex  9.84807730E-01  1.73648179E-01  0.00000000E+00
      vertex  1.12919092E+00 -6.45189524E-01 -5.55570185E-01
      vertex  1.11903954E+00 -5.87618411E-01 -6.34393275E-01
    endloop
  endfacet
  facet normal  9.84807789E-01  1.73648015E-01  3.41552834E-07
    outer loop
      vertex  9.84807730E-01  1.73648179E-01  0.00000000E+00
      vertex  1.13795173E+00 -6.94874763E-01 -4.71396714E-01
      vertex  1.12919092E+00 -6.45189524E-01 -5.55570185E-01
    endloop
  endfacet
  facet normal  9.84807789E-01  1.73648119E-01  1.03782895E-07
    outer loop
      vertex  9.84807730E-01  1.73648179E-01  0.00000000E+00
      vertex  1.14523768E+00 -7.36195505E-01 -3.82683396E-01
      vertex  1.13795173E+00 -6.94874763E-01 -4.71396714E-01
    endloop
  endfacet
  facet normal  9.84807730E-01  1.73648223E-01 -2.77964375E-07
    outer loop
      vertex  9.84807730E-01  1.73648179E-01  0.00000000E+00
      vertex  1.15097868E+00 -7.68754184E-01 -2.90284693E-01
      vertex  1.14523768E+00 -7.36195505E-01 -3.82683396E-01
    endloop
  endfacet
  facet normal  9.84807730E-01  1.73648164E-01 -1.62848899E-08
    outer loop
      vertex  9.84807730E-01  1.73648179E-01  0.00000000E+00
      vertex  1.15511930E+00 -7.92236805E-01 -1.95090294E-01
      vertex  1.15097868E+00 -7.68754184E-01 -2.90284693E-01
    endloop
  endfacet
  facet normal  9.84807730E-01  1.73648357E-01 -1.07176072E-06
    outer loop
      vertex  9.84807730E-01  1.73648179E-01  0.00000000E+00
      vertex  1.15761983E+00 -8.06417465E-01 -9.80171412E-02
      vertex  1.15511930E+00 -7.92236805E-01 -1.95090294E-01
    endloop
  endfacet
  facet normal  9.84807730E-01  1.73648238E-01  2.79500966E-07
    outer loop
      vertex  9.84807730E-01  1.73648179E-01  0.00000000E+00
      vertex  1.15845597E+00 -8.11159551E-01  0.00000000E+00
      vertex  1.15761983E+00 -8.06417465E-01 -9.80171412E-02
    endloop
  endfacet
  facet normal -2.84828931E-01 -9.57572699E-01  4.38971110E-02
    outer loop
      vertex -9.84807730E-01 -1.73648179E-01  0.00000000E+00
      vertex  1.15845597E+00 -8.11159551E-01  0.00000000E+00
      vertex  1.15761983E+00 -8.06417465E-01  9.80171412E-02
    endloop
  endfacet
  facet normal -2.86323279E-01 -9.49097991E-01  1.31270796E-01
    outer loop
      vertex -9.84807730E-01 -1.73648179E-01  0.00000000E+00
      vertex  1.15761983E+00 -8.06417465E-01  9.80171412E-02
      vertex  1.15511930E+00 -7.92236805E-01  1.95090294E-01
    endloop
  endfacet
  facet normal -2.89297611E-01 -9.32229996E-01  2.17380270E-01
    outer loop
      vertex -9.84807730E-01 -1.73648179E-01  0.00000000E+00
      vertex  1.15511930E+00 -7.92236805E-01  1.95090294E-01
      vertex  1.15097868E+00 -7.68754184E-01  2.90284693E-01
    endloop
  endfacet
  facet normal -2.93723166E-01 -9.07130957E-01  3.01396996E-01
    outer loop
      vertex -9.84807730E-01 -1.73648179E-01  0.00000000E+00
      vertex  1.15097868E+00 -7.68754184E-01  2.90284693E-01
      vertex  1.14523768E+00 -7.36195505E-01  3.82683396E-01
    endloop
  endfacet
  facet normal -2.99557298E-01 -8.74044061E-01  3.82508010E-01
    outer loop
      vertex -9.84807730E-01 -1.73648179E-01  0.00000000E+00
      vertex  1.14523768E+00 -7.36195505E-01  3.82683396E-01
      vertex  1.13795173E+00 -6.94874763E-01  4.71396714E-01
    endloop
  endfacet
  facet normal -3.06744248E-01 -8.33285093E-01  4.59939092E-01
    outer loop
      vertex -9.84807730E-01 -1.73648179E-01  0.00000000E+00
      vertex  1.13795173E+00 -6.94874763E-01  4.71396714E-01
      vertex  1.12919092E+00 -6.45189524E-01  5.55570185E-01
    endloop
  endfacet
  facet normal -3.15214097E-01 -7.85249650E-01  5.32938182E-01
    outer loop
      vertex -9.84807730E-01 -1.73648179E-01  0.00000000E+00
      vertex  1.12919092E+00 -6.45189524E-01  5.55570185E-01
      vertex  1.11903954E+00 -5.87618411E-01  6.34393275E-01
    endloop
  endfacet
  facet normal -3.24885786E-01 -7.30399191E-01  6.00804687E-01
    outer loop
      vertex -9.84807730E-01 -1.73648179E-01  0.00000000E+00
      vertex  1.11903954E+00 -5.87618411E-01  6.34393275E-01
      vertex  1.10759556E+00 -5.22716105E-01  7.07106829E-01
    endloop
  endfacet
  facet normal -3.35666150E-01 -6.69259965E-01  6.62887096E-01
    outer loop
      vertex -9.84807730E-01 -1.73648179E-01  0.00000000E+00
      vertex  1.10759556E+00 -5.22716105E-01  7.07106829E-01
      vertex  1.09496903E+00 -4.51107234E-01  7.73010373E-01
    endloop
  endfacet
  facet normal -3.47451001E-01 -6.02424979E-01  7.18583286E-01
    outer loop
      vertex -9.84807730E-01 -1.73648179E-01  0.00000000E+00
      vertex  1.09496903E+00 -4.51107234E-01  7.73010373E-01
      vertex  1.08128154E+00 -3.73481661E-01  8.31469595E-01
    endloop
  endfacet
  facet normal -3.60127419E-01 -5.30533791E-01  7.67360508E-01
    outer loop
      vertex -9.84807730E-01 -1.73648179E-01  0.00000000E+00
      vertex  1.08128154E+00 -3.73481661E-01  8.31469595E-01
      vertex  1.06666493E+00 -2.90586948E-01  8.81921291E-01
    endloop
  endfacet
  facet normal -3.73572886E-01 -4.54280645E-01  8.08747411E-01
    outer loop
      vertex -9.84807730E-01 -1.73648179E-01  0.00000000E+00
      vertex  1.06666493E+00 -2.90586948E-01  8.81921291E-01
      vertex  1.05125999E+00 -2.03221396E-01  9.23879504E-01
    endloop
  endfacet
  facet normal -3.87657791E-01 -3.74401301E-01  8.42344999E-01
    outer loop
      vertex -9.84807730E-01 -1.73648179E-01  0.00000000E+00
      vertex  1.05125999E+00 -2.03221396E-01  9.23879504E-01
      vertex  1.03521514E+00 -1.12226442E-01  9.56940413E-01
    endloop
  endfacet
  facet normal -4.02247250E-01 -2.91660368E-01  8.67831409E-01
    outer loop
      vertex -9.84807730E-01 -1.73648179E-01  0.00000000E+00
      vertex  1.03521514E+00 -1.12226442E-01  9.56940413E-01
      vertex  1.01868486E+00 -1.84782557E-02  9.80785310E-01
    endloop
  endfacet
  facet normal -4.17199820E-01 -2.06860170E-01  8.84959400E-01
    outer loop
      vertex -9.84807730E-01 -1.73648179E-01  0.00000000E+00
      vertex  1.01868486E+00 -1.84782557E-02  9.80785310E-01
      vertex  1.00182819E+00  7.71201327E-02  9.95184720E-01
    endloop
  endfacet
  facet normal -4.32372063E-01 -1.20814167E-01  8.93564939E-01
    outer loop
      vertex -9.84807730E-01 -1.73648179E-01  0.00000000E+00
      vertex  1.00182819E+00  7.71201327E-02  9.95184720E-01
      vertex  9.84807730E-01  1.73648179E-01  1.00000000E+00
    endloop
  endfacet
  facet normal -4.47617650E-01 -3.43516283E-02  8.93564999E-01
    outer loop
      vertex -9.84807730E-01 -1.73648179E-01  0.00000000E+00
      vertex  9.84807730E-01  1.73648179E-01  1.00000000E+00
      vertex  9.67787206E-01  2.70176202E-01  9.95184720E-01
    endloop
  endfacet
  facet normal -4.62789744E-01  5.16934879E-02  8.84959579E-01
    outer loop
      vertex -9.84807730E-01 -1.73648179E-01  0.00000000E+00
      vertex  9.67787206E-01  2.70176202E-01  9.95184720E-01
      vertex  9.50930655E-01  3.65774602E-01  9.80785310E-01
    endloop
  endfacet
  facet normal -4.77742642E-01  1.36494488E-01  8.67831349E-01
    outer loop
      vertex -9.84807730E-01 -1.73648179E-01  0.00000000E+00
      vertex  9.50930655E-01  3.65774602E-01  9.80785310E-01
      vertex  9.34400380E-01  4.59522814E-01  9.56940413E-01
    endloop
  endfacet
  facet normal -4.92331773E-01  2.19234973E-01  8.42345178E-01
    outer loop
      vertex -9.84807730E-01 -1.73648179E-01  0.00000000E+00
      vertex  9.34400380E-01  4.59522814E-01  9.56940413E-01
      vertex  9.18355465E-01  5.50517738E-01  9.23879504E-01
    endloop
  endfacet
  facet normal -5.06416798E-01  2.99114048E-01  8.08747709E-01
    outer loop
      vertex -9.84807730E-01 -1.73648179E-01  0.00000000E+00
      vertex  9.18355465E-01  5.50517738E-01  9.23879504E-01
      vertex  9.02950585E-01  6.37883306E-01  8.81921291E-01
    endloop
  endfacet
  facet normal -5.19862533E-01  3.75368506E-01  7.67360032E-01
    outer loop
      vertex -9.84807730E-01 -1.73648179E-01  0.00000000E+00
      vertex  9.02950585E-01  6.37883306E-01  8.81921291E-01
      vertex  8.88334036E-01  7.20777988E-01  8.31469595E-01
    endloop
  endfacet
  facet normal -5.32538712E-01  4.47258413E-01  7.18583643E-01
    outer loop
      vertex -9.84807730E-01 -1.73648179E-01  0.00000000E+00
      vertex  8.88334036E-01  7.20777988E-01  8.31469595E-01
      vertex  8.74646544E-01  7.98403621E-01  7.73010373E-01
    endloop
  endfacet
  facet normal -5.44323266E-01  5.14093816E-01  6.62887454E-01
    outer loop
      vertex -9.84807730E-01 -1.73648179E-01  0.00000000E+00
      vertex  8.74646544E-01  7.98403621E-01  7.73010373E-01
      vertex  8.62019897E-01  8.70012462E-01  7.07106829E-01
    endloop
  endfacet
  facet normal -5.55103958E-01  5.75233996E-01  6.00803971E-01
    outer loop
      vertex -9.84807730E-01 -1.73648179E-01  0.00000000E+00
      vertex  8.62019897E-01  8.70012462E-01  7.07106829E-01
      vertex  8.50575924E-01  9.34914768E-01  6.34393275E-01
    endloop
  endfacet
  facet normal -5.64775229E-01  6.30083203E-01  5.32939136E-01
    outer loop
      vertex -9.84807730E-01 -1.73648179E-01  0.00000000E+00
      vertex  8.50575924E-01  9.34914768E-01  6.34393275E-01
      vertex  8.40424538E-01  9.92485881E-01  5.55570185E-01
    endloop
  endfacet
  facet normal -5.73245883E-01  6.78119302E-01  4.59938467E-01
    outer loop
      vertex -9.84807730E-01 -1.73648179E-01  0.00000000E+00
      vertex  8.40424538E-01  9.92485881E-01  5.55570185E-01
      vertex  8.31663728E-01  1.04217112E+00  4.71396714E-01
    endloop
  endfacet
  facet normal -5.80432296E-01  7.18877733E-01  3.82509023E-01
    outer loop
      vertex -9.84807730E-01 -1.73648179E-01  0.00000000E+00
      vertex  8.31663728E-01  1.04217112E+00  4.71396714E-01
      vertex  8.24377775E-01  1.08349192E+00  3.82683396E-01
    endloop
  endfacet
  facet normal -5.86266816E-01  7.51965702E-01  3.01394761E-01
    outer loop
      vertex -9.84807730E-01 -1.73648179E-01  0.00000000E+00
      vertex  8.24377775E-01  1.08349192E+00  3.82683396E-01
      vertex  8.18636835E-01  1.11605048E+00  2.90284693E-01
    endloop
  endfacet
  facet normal -5.90692103E-01  7.77063727E-01  2.17381626E-01
    outer loop
      vertex -9.84807730E-01 -1.73648179E-01  0.00000000E+00
      vertex  8.18636835E-01  1.11605048E+00  2.90284693E-01
      vertex  8.14496160E-01  1.13953316E+00  1.95090294E-01
    endloop
  endfacet
  facet normal -5.93666434E-01  7.93931961E-01  1.31271571E-01
    outer loop
      vertex -9.84807730E-01 -1.73648179E-01  0.00000000E+00
      vertex  8.14496160E-01  1.13953316E+00  1.95090294E-01
      vertex  8.11995745E-01  1.15371382E+00  9.80171412E-02
    endloop
  endfacet
  facet normal -5.95160782E-01  8.02406728E-01  4.38978411E-02
    outer loop
      vertex -9.84807730E-01 -1.73648179E-01  0.00000000E+00
      vertex  8.11995745E-01  1.15371382E+00  9.80171412E-02
      vertex  8.11159551E-01  1.15845597E+00  1.22460596E-16
    endloop
  endfacet
  facet normal -5.95160782E-01  8.02406728E-01 -4.38977815E-02
    outer loop
      vertex -9.84807730E-01 -1.73648179E-01  0.00000000E+00
      vertex  8.11159551E-01  1.15845597E+00  1.22460596E-16
      vertex  8.11995745E-01  1.15371382E+00 -9.80171412E-02
    endloop
  endfacet
  facet normal -5.93666494E-01  7.93932080E-01 -1.31270513E-01
    outer loop
      vertex -9.84807730E-01 -1.73648179E-01  0.00000000E+00
      vertex  8.11995745E-01  1.15371382E+00 -9.80171412E-02
      vertex  8.14496160E-01  1.13953316E+00 -1.95090294E-01
    endloop
  endfacet
  facet normal -5.90692163E-01  7.77063727E-01 -2.17381671E-01
    outer loop
      vertex -9.84807730E-01 -1.73648179E-01  0.00000000E+00
      vertex  8.14496160E-01  1.13953316E+00 -1.95090294E-01
      vertex  8.18636835E-01  1.11605048E+00 -2.90284693E-01
    endloop
  endfacet
  facet normal -5.86266637E-01  7.51965582E-01 -3.01395416E-01
    outer loop
      vertex -9.84807730E-01 -1.73648179E-01  0.00000000E+00
      vertex  8.18636835E-01  1.11605048E+00 -2.90284693E-01
      vertex  8.24377775E-01  1.08349192E+00 -3.82683396E-01
    endloop
  endfacet
  facet normal -5.80432236E-01  7.18877792E-01 -3.82509023E-01
    outer loop
      vertex -9.84807730E-01 -1.73648179E-01  0.00000000E+00
      vertex  8.24377775E-01  1.08349192E+00 -3.82683396E-01
      vertex  8.31663728E-01  1.04217112E+00 -4.71396714E-01
    endloop
  endfacet
  facet normal -5.73245645E-01  6.78119600E-01 -4.59938288E-01
    outer loop
      vertex -9.84807730E-01 -1.73648179E-01  0.00000000E+00
      vertex  8.31663728E-01  1.04217112E+00 -4.71396714E-01
      vertex  8.40424538E-01  9.92485881E-01 -5.55570185E-01
    endloop
  endfacet
  facet normal -5.64775407E-01  6.30083144E-01 -5.32939017E-01
    outer loop
      vertex -9.84807730E-01 -1.73648179E-01  0.00000000E+00
      vertex  8.40424538E-01  9.92485881E-01 -5.55570185E-01
      vertex  8.50575924E-01  9.34914768E-01 -6.34393275E-01
    endloop
  endfacet
  facet normal -5.55104077E-01  5.75233936E-01 -6.00803971E-01
    outer loop
      vertex -9.84807730E-01 -1.73648179E-01  0.00000000E+00
      vertex  8.50575924E-01  9.34914768E-01 -6.34393275E-01
      vertex  8.62019897E-01  8.70012462E-01 -7.07106829E-01
    endloop
  endfacet
  facet normal -5.44323444E-01  5.14093697E-01 -6.62887335E-01
    outer loop
      vertex -9.84807730E-01 -1.73648179E-01  0.00000000E+00
      vertex  8.62019897E-01  8.70012462E-01 -7.07106829E-01
      vertex  8.74646544E-01  7.98403621E-01 -7.73010373E-01
    endloop
  endfacet
  facet normal -5.32538593E-01  4.47258651E-01 -7.18583584E-01
    outer loop
      vertex -9.84807730E-01 -1.73648179E-01  0.00000000E+00
      vertex  8.74646544E-01  7.98403621E-01 -7.73010373E-01
      vertex  8.88334036E-01  7.20777988E-01 -8.31469595E-01
    endloop
  endfacet
  facet normal -5.19862294E-01  3.75368536E-01 -7.67360210E-01
    outer loop
      vertex -9.84807730E-01 -1.73648179E-01  0.00000000E+00
      vertex  8.88334036E-01  7.20777988E-01 -8.31469595E-01
      vertex  9.02950585E-01  6.37883306E-01 -8.81921291E-01
    endloop
  endfacet
  facet normal -5.06416619E-01  2.99114436E-01 -8.08747649E-01
    outer loop
      vertex -9.84807730E-01 -1.73648179E-01  0.00000000E+00
      vertex  9.02950585E-01  6.37883306E-01 -8.81921291E-01
      vertex  9.18355465E-01  5.50517738E-01 -9.23879504E-01
    endloop
  endfacet
  facet normal -4.92331922E-01  2.19235405E-01 -8.42344999E-01
    outer loop
      vertex -9.84807730E-01 -1.73648179E-01  0.00000000E+00
      vertex  9.18355465E-01  5.50517738E-01 -9.23879504E-01
      vertex  9.34400380E-01  4.59522814E-01 -9.56940413E-01
    endloop
  endfacet
  facet normal -4.77742523E-01  1.36494681E-01 -8.67831349E-01
    outer loop
      vertex -9.84807730E-01 -1.73648179E-01  0.00000000E+00
      vertex  9.34400380E-01  4.59522814E-01 -9.56940413E-01
      vertex  9.50930655E-01  3.65774602E-01 -9.80785310E-01
    endloop
  endfacet
  facet normal -4.62789863E-01  5.16933277E-02 -8.84959519E-01
    outer loop
      vertex -9.84807730E-01 -1.73648179E-01  0.00000000E+00
      vertex  9.50930655E-01  3.65774602E-01 -9.80785310E-01
      vertex  9.67787206E-01  2.70176202E-01 -9.95184720E-01
    endloop
  endfacet
  facet normal -4.47617739E-01 -3.43514495E-02 -8.93564939E-01
    outer loop
      vertex -9.84807730E-01 -1.73648179E-01  0.00000000E+00
      vertex  9.67787206E-01  2.70176202E-01 -9.95184720E-01
      vertex  9.84807730E-01  1.73648179E-01 -1.00000000E+00
    endloop
  endfacet
  facet normal -4.32372093E-01 -1.20813988E-01 -8.93564939E-01
    outer loop
      vertex -9.84807730E-01 -1.73648179E-01  0.00000000E+00
      vertex  9.84807730E-01  1.73648179E-01 -1.00000000E+00
      vertex  1.00182819E+00  7.71201327E-02 -9.95184720E-01
    endloop
  endfacet
  facet normal -4.17199820E-01 -2.06860155E-01 -8.84959459E-01
    outer loop
      vertex -9.84807730E-01 -1.73648179E-01  0.00000000E+00
      vertex  1.00182819E+00  7.71201327E-02 -9.95184720E-01
      vertex  1.01868486E+00 -1.84782557E-02 -9.80785310E-01
    endloop
  endfacet
  facet normal -4.02247310E-01 -2.91660368E-01 -8.67831409E-01
    outer loop
      vertex -9.84807730E-01 -1.73648179E-01  0.00000000E+00
      vertex  1.01868486E+00 -1.84782557E-02 -9.80785310E-01
      vertex  1.03521514E+00 -1.12226442E-01 -9.56940413E-01
    endloop
  endfacet
  facet normal -3.87657821E-01 -3.74401063E-01 -8.42345059E-01
    outer loop
      vertex -9.84807730E-01 -1.73648179E-01  0.00000000E+00
      vertex  1.03521514E+00 -1.12226442E-01 -9.56940413E-01
      vertex  1.05125999E+00 -2.03221396E-01 -9.23879504E-01
    endloop
  endfacet
  facet normal -3.73572946E-01 -4.54280347E-01 -8.08747530E-01
    outer loop
      vertex -9.84807730E-01 -1.73648179E-01  0.00000000E+00
      vertex  1.05125999E+00 -2.03221396E-01 -9.23879504E-01
      vertex  1.06666493E+00 -2.90586948E-01 -8.81921291E-01
    endloop
  endfacet
  facet normal -3.60127389E-01 -5.30533850E-01 -7.67360508E-01
    outer loop
      vertex -9.84807730E-01 -1.73648179E-01  0.00000000E+00
      vertex  1.06666493E+00 -2.90586948E-01 -8.81921291E-01
      vertex  1.08128154E+00 -3.73481661E-01 -8.31469595E-01
    endloop
  endfacet
  facet normal -3.47451061E-01 -6.02425158E-01 -7.18583107E-01
    outer loop
      vertex -9.84807730E-01 -1.73648179E-01  0.00000000E+00
      vertex  1.08128154E+00 -3.73481661E-01 -8.31469595E-01
      vertex  1.09496903E+00 -4.51107234E-01 -7.73010373E-01
    endloop
  endfacet
  facet normal -3.35666239E-01 -6.69259846E-01 -6.62887216E-01
    outer loop
      vertex -9.84807730E-01 -1.73648179E-01  0.00000000E+00
      vertex  1.09496903E+00 -4.51107234E-01 -7.73010373E-01
      vertex  1.10759556E+00 -5.22716105E-01 -7.07106829E-01
    endloop
  endfacet
  facet normal -3.24885726E-01 -7.30399311E-01 -6.00804567E-01
    outer loop
      vertex -9.84807730E-01 -1.73648179E-01  0.00000000E+00
      vertex  1.10759556E+00 -5.22716105E-01 -7.07106829E-01
      vertex  1.11903954E+00 -5.87618411E-01 -6.34393275E-01
    endloop
  endfacet
  facet normal -3.15214157E-01 -7.85249650E-01 -5.32938123E-01
    outer loop
      vertex -9.84807730E-01 -1.73648179E-01  0.00000000E+00
      vertex  1.11903954E+00 -5.87618411E-01 -6.34393275E-01
      vertex  1.12919092E+00 -6.45189524E-01 -5.55570185E-01
    endloop
  endfacet
  facet normal -3.06744248E-01 -8.33284974E-01 -4.59939271E-01
    outer loop
      vertex -9.84807730E-01 -1.73648179E-01  0.00000000E+00
      vertex  1.12919092E+00 -6.45189524E-01 -5.55570185E-01
      vertex  1.13795173E+00 -6.94874763E-01 -4.71396714E-01
    endloop
  endfacet
  facet normal -2.99557358E-01 -8.74044061E-01 -3.82508039E-01
    outer loop
      vertex -9.84807730E-01 -1.73648179E-01  0.00000000E+00
      vertex  1.13795173E+00 -6.94874763E-01 -4.71396714E-01
      vertex  1.14523768E+00 -7.36195505E-01 -3.82683396E-01
    endloop
  endfacet
  facet normal -2.93723196E-01 -9.07131016E-01 -3.01396847E-01
    outer loop
      vertex -9.84807730E-01 -1.73648179E-01  0.00000000E+00
      vertex  1.14523768E+00 -7.36195505E-01 -3.82683396E-01
      vertex  1.15097868E+00 -7.68754184E-01 -2.90284693E-01
    endloop
  endfacet
  facet normal -2.89297521E-01 -9.32229877E-01 -2.17380658E-01
    outer loop
      vertex -9.84807730E-01 -1.73648179E-01  0.00000000E+00
      vertex  1.15097868E+00 -7.68754184E-01 -2.90284693E-01
      vertex  1.15511930E+00 -7.92236805E-01 -1.95090294E-01
    endloop
  endfacet
  facet normal -2.86323220E-01 -9.49097931E-01 -1.31271094E-01
    outer loop
      vertex -9.84807730E-01 -1.73648179E-01  0.00000000E+00
      vertex  1.15511930E+00 -7.92236805E-01 -1.95090294E-01
      vertex  1.15761983E+00 -8.06417465E-01 -9.80171412E-02
    endloop
  endfacet
  facet normal -2.84828931E-01 -9.57572758E-01 -4.38970067E-02
    outer loop
      vertex -9.84807730E-01 -1.73648179E-01  0.00000000E+00
      vertex  1.15761983E+00 -8.06417465E-01 -9.80171412E-02
      vertex  1.15845597E+00 -8.11159551E-01  0.00000000E+00
    endloop
  endfacet
endsolid  Processed by ADMesh version 0.95
